<?xml version="1.0" encoding="UTF-8"?>
<svg version="1.1" xmlns="http://www.w3.org/2000/svg" width="475" height="461">
<path d="M0 0 C0.7562005 -0.00297112 1.512401 -0.00594224 2.29151666 -0.0090034 C4.81531731 -0.01764716 7.33907027 -0.01919498 9.86288452 -0.02069092 C11.67678935 -0.02532221 13.49069321 -0.03034729 15.30459595 -0.03573608 C20.22637665 -0.04883342 25.14814373 -0.05530001 30.06993914 -0.05974674 C33.14856047 -0.0626822 36.22717811 -0.06678794 39.30579758 -0.07125092 C48.94868534 -0.08491977 58.59156464 -0.09458902 68.23446143 -0.09845281 C79.34577445 -0.10293005 90.45696424 -0.12046505 101.56823981 -0.1494534 C110.16975358 -0.1711108 118.77123279 -0.18115928 127.37277353 -0.18249393 C132.50394139 -0.18353918 137.63499333 -0.18938728 142.76613235 -0.20731354 C147.5973971 -0.22386414 152.42845964 -0.22591596 157.25974274 -0.21717453 C159.02530079 -0.21640785 160.79087003 -0.22069782 162.5564003 -0.23063278 C180.21545161 -0.32411375 194.78704389 2.24776986 208.04403687 14.82012939 C221.5816646 28.75661271 223.60185532 43.58083091 223.57260132 62.22955322 C223.57695339 64.06360582 223.58213819 65.8976566 223.58808899 67.73170471 C223.60143787 72.69464975 223.60206217 77.65751843 223.59952569 82.62047791 C223.59845304 86.77278809 223.60334693 90.925083 223.60813111 95.0773899 C223.61921239 104.87909927 223.61967167 114.68077031 223.61361694 124.48248291 C223.60757963 134.57253173 223.61988521 144.66244101 223.64118701 154.75246602 C223.65883846 163.43472548 223.66479873 172.11694067 223.66154927 180.7992174 C223.65974169 185.97616191 223.66231983 191.15300691 223.67626381 196.32993507 C223.68889506 201.20146949 223.68684819 206.07278744 223.67385292 210.94431877 C223.67149897 212.72438762 223.67417906 214.50447195 223.68247604 216.28452301 C223.75860995 233.89913412 221.07897864 248.74394407 208.55966187 262.07403564 C198.97400391 270.83191657 186.98286284 276.21412039 173.99636841 276.3053894 C172.08868179 276.32224037 172.08868179 276.32224037 170.14245605 276.33943176 C168.739533 276.34693124 167.33660939 276.35432829 165.9336853 276.3616333 C164.44956156 276.37285844 162.96544085 276.3844911 161.48132324 276.39649963 C157.44649693 276.42782159 153.41165399 276.45296982 149.3767767 276.47669649 C145.98466362 276.49720478 142.59257411 276.52072625 139.2004807 276.54423368 C131.16137792 276.59989432 123.12225423 276.65056349 115.08309937 276.69805908 C106.87602785 276.74662324 98.66903787 276.80297652 90.46204638 276.86348021 C83.36427505 276.91554012 76.26648188 276.96269513 69.16865277 277.00616777 C64.95400223 277.0320138 60.73938059 277.05943894 56.52477264 277.09154129 C40.46966816 277.21159868 24.41514226 277.26360731 8.36290216 276.88248324 C6.96740088 276.85039218 5.57179589 276.8224631 4.17611837 276.79926991 C-11.78974286 276.51740108 -25.92099551 273.28558731 -37.86221313 262.10137939 C-47.66078987 251.65788571 -52.85294279 238.75688853 -52.84922791 224.48944092 C-52.85290459 223.72663331 -52.85658128 222.96382569 -52.86036938 222.1779027 C-52.87136891 219.62569534 -52.87524375 217.07352875 -52.87905884 214.52130127 C-52.88532645 212.68946199 -52.89197351 210.85762398 -52.89897156 209.02578735 C-52.91998388 203.01193116 -52.93037322 196.99807479 -52.94033813 190.98419189 C-52.94438714 188.91014086 -52.9485041 186.83608995 -52.95268822 184.76203918 C-52.97173587 175.01396286 -52.98596623 165.26589407 -52.99430019 155.51780272 C-53.00406293 144.28533312 -53.03035915 133.05306109 -53.07080108 121.82066107 C-53.10102352 113.12658447 -53.11577498 104.4325643 -53.1190812 95.73843622 C-53.12142521 90.55184817 -53.13030067 85.36547127 -53.15554237 80.17893982 C-53.17893466 75.29347299 -53.18301171 70.40835468 -53.17278099 65.52284622 C-53.17228818 63.73835206 -53.17853272 61.95384009 -53.19233704 60.16939926 C-53.3223978 42.34692036 -49.68652024 27.8122817 -37.22158813 14.49981689 C-26.73374006 4.67863823 -14.21626867 -0.01764641 0 0 Z " fill="#03061D" transform="translate(156.70205688476563,89.85955810546875)"/>
<path d="M0 0 C0.7562005 -0.00297112 1.512401 -0.00594224 2.29151666 -0.0090034 C4.81531731 -0.01764716 7.33907027 -0.01919498 9.86288452 -0.02069092 C11.67678935 -0.02532221 13.49069321 -0.03034729 15.30459595 -0.03573608 C20.22637665 -0.04883342 25.14814373 -0.05530001 30.06993914 -0.05974674 C33.14856047 -0.0626822 36.22717811 -0.06678794 39.30579758 -0.07125092 C48.94868534 -0.08491977 58.59156464 -0.09458902 68.23446143 -0.09845281 C79.34577445 -0.10293005 90.45696424 -0.12046505 101.56823981 -0.1494534 C110.16975358 -0.1711108 118.77123279 -0.18115928 127.37277353 -0.18249393 C132.50394139 -0.18353918 137.63499333 -0.18938728 142.76613235 -0.20731354 C147.5973971 -0.22386414 152.42845964 -0.22591596 157.25974274 -0.21717453 C159.02530079 -0.21640785 160.79087003 -0.22069782 162.5564003 -0.23063278 C180.21545161 -0.32411375 194.78704389 2.24776986 208.04403687 14.82012939 C221.5816646 28.75661271 223.60185532 43.58083091 223.57260132 62.22955322 C223.57695339 64.06360582 223.58213819 65.8976566 223.58808899 67.73170471 C223.60143787 72.69464975 223.60206217 77.65751843 223.59952569 82.62047791 C223.59845304 86.77278809 223.60334693 90.925083 223.60813111 95.0773899 C223.61921239 104.87909927 223.61967167 114.68077031 223.61361694 124.48248291 C223.60757963 134.57253173 223.61988521 144.66244101 223.64118701 154.75246602 C223.65883846 163.43472548 223.66479873 172.11694067 223.66154927 180.7992174 C223.65974169 185.97616191 223.66231983 191.15300691 223.67626381 196.32993507 C223.68889506 201.20146949 223.68684819 206.07278744 223.67385292 210.94431877 C223.67149897 212.72438762 223.67417906 214.50447195 223.68247604 216.28452301 C223.75860995 233.89913412 221.07897864 248.74394407 208.55966187 262.07403564 C198.97400391 270.83191657 186.98286284 276.21412039 173.99636841 276.3053894 C172.08868179 276.32224037 172.08868179 276.32224037 170.14245605 276.33943176 C168.739533 276.34693124 167.33660939 276.35432829 165.9336853 276.3616333 C164.44956156 276.37285844 162.96544085 276.3844911 161.48132324 276.39649963 C157.44649693 276.42782159 153.41165399 276.45296982 149.3767767 276.47669649 C145.98466362 276.49720478 142.59257411 276.52072625 139.2004807 276.54423368 C131.16137792 276.59989432 123.12225423 276.65056349 115.08309937 276.69805908 C106.87602785 276.74662324 98.66903787 276.80297652 90.46204638 276.86348021 C83.36427505 276.91554012 76.26648188 276.96269513 69.16865277 277.00616777 C64.95400223 277.0320138 60.73938059 277.05943894 56.52477264 277.09154129 C40.46966816 277.21159868 24.41514226 277.26360731 8.36290216 276.88248324 C6.96740088 276.85039218 5.57179589 276.8224631 4.17611837 276.79926991 C-11.78974286 276.51740108 -25.92099551 273.28558731 -37.86221313 262.10137939 C-47.66078987 251.65788571 -52.85294279 238.75688853 -52.84922791 224.48944092 C-52.85290459 223.72663331 -52.85658128 222.96382569 -52.86036938 222.1779027 C-52.87136891 219.62569534 -52.87524375 217.07352875 -52.87905884 214.52130127 C-52.88532645 212.68946199 -52.89197351 210.85762398 -52.89897156 209.02578735 C-52.91998388 203.01193116 -52.93037322 196.99807479 -52.94033813 190.98419189 C-52.94438714 188.91014086 -52.9485041 186.83608995 -52.95268822 184.76203918 C-52.97173587 175.01396286 -52.98596623 165.26589407 -52.99430019 155.51780272 C-53.00406293 144.28533312 -53.03035915 133.05306109 -53.07080108 121.82066107 C-53.10102352 113.12658447 -53.11577498 104.4325643 -53.1190812 95.73843622 C-53.12142521 90.55184817 -53.13030067 85.36547127 -53.15554237 80.17893982 C-53.17893466 75.29347299 -53.18301171 70.40835468 -53.17278099 65.52284622 C-53.17228818 63.73835206 -53.17853272 61.95384009 -53.19233704 60.16939926 C-53.3223978 42.34692036 -49.68652024 27.8122817 -37.22158813 14.49981689 C-26.73374006 4.67863823 -14.21626867 -0.01764641 0 0 Z M-24.69424438 36.39825439 C-33.67499822 48.66379757 -35.00405627 60.78268103 -34.99258423 75.49151611 C-34.99857773 77.03162967 -35.00538515 78.57174023 -35.01293945 80.11184692 C-35.03052076 84.27309313 -35.03529143 88.43425695 -35.03657103 92.59553671 C-35.03799739 95.2006232 -35.0422761 97.80568907 -35.04756546 100.41077042 C-35.06603807 109.51387094 -35.07423935 118.61691309 -35.07266235 127.72003174 C-35.07146096 136.18215782 -35.09256992 144.64402886 -35.12414968 153.10609043 C-35.15036405 160.39217057 -35.16102753 167.67816765 -35.15975153 174.96429455 C-35.15924352 179.30680209 -35.16483782 183.6490826 -35.18610764 187.99154282 C-35.205578 192.07766026 -35.20555501 196.16333606 -35.19107437 200.24946976 C-35.18899619 201.74131674 -35.19362754 203.23319203 -35.20579529 204.72499084 C-35.32827675 220.79342544 -30.45843095 233.88392304 -19.42861938 245.70684814 C-7.48227893 256.36955603 5.13495871 258.44294447 20.59555054 258.43096924 C22.14212364 258.43696111 23.68869376 258.44376816 25.23526001 258.45132446 C29.41942614 258.4689272 33.60351037 258.47367749 37.78770995 258.47495604 C40.40771498 258.47638174 43.02769945 258.48065931 45.64769936 258.48595047 C54.80497169 258.50443362 63.96218595 258.51262346 73.11947632 258.51104736 C81.62755239 258.50984726 90.13537426 258.5309282 98.64338607 258.56253469 C105.97024123 258.58877393 113.29701377 258.59941143 120.62391549 258.59813654 C124.98997564 258.59762904 129.3558098 258.60319372 133.72182274 258.62449265 C137.83337613 258.64400387 141.944491 258.64391259 146.05606079 258.62945938 C147.55512961 258.62738586 149.05422681 258.63198406 150.55324745 258.6441803 C166.60413564 258.76619221 179.99368031 254.93571467 192.04794312 243.95294189 C203.52224618 231.6235826 205.75801257 217.62688562 205.68612671 201.45465088 C205.69020021 199.90276726 205.69554642 198.35088654 205.70205688 196.79901123 C205.71564274 192.61516689 205.71046855 188.43154641 205.70091963 184.24769855 C205.69327882 179.85216376 205.70038072 175.45664705 205.70507812 171.06111145 C205.7105223 163.68330474 205.70337872 156.30558838 205.6890564 148.92779541 C205.6727264 140.41792548 205.67802631 131.90827117 205.69453561 123.39840645 C205.7081815 116.0689833 205.71005519 108.73962478 205.70221961 101.41019303 C205.69756088 97.04265154 205.69686849 92.67521117 205.70682907 88.30767632 C205.71554202 84.20105598 205.70939848 80.09471177 205.6921463 75.98812103 C205.6882047 74.48780079 205.68927526 72.98745702 205.6959343 71.48714638 C205.76167056 55.1623058 201.96089655 43.45518151 190.68466187 31.43341064 C180.7941903 21.9314355 169.15099886 18.044348 155.57658386 17.99327087 C153.60662949 17.98253792 153.60662949 17.98253792 151.59687805 17.97158813 C150.1584475 17.96874853 148.7200167 17.96603672 147.28158569 17.96343994 C145.75324349 17.95716728 144.2249028 17.95051978 142.69656372 17.94352722 C137.69521121 17.92258161 132.69385872 17.91213443 127.69247437 17.90216064 C125.96447929 17.89810968 124.23648437 17.89399265 122.50848961 17.88981056 C114.38839349 17.87078055 106.26830633 17.85654439 98.14819223 17.84819859 C88.80158178 17.83843113 79.45520845 17.81211524 70.1086815 17.7716977 C62.86594794 17.74146126 55.62328208 17.72672265 48.38048667 17.72341758 C44.06305268 17.72107594 39.74587265 17.71223137 35.42850685 17.68695641 C31.36295113 17.6635379 27.29781415 17.65949719 23.23220825 17.66971779 C21.74883817 17.67020991 20.26544648 17.66398611 18.78214073 17.65016174 C1.21772906 17.49575675 -13.13438572 22.76673647 -24.69424438 36.39825439 Z " fill="#02051D" transform="translate(156.70205688476563,89.85955810546875)"/>
<path d="M0 0 C1.53394901 -0.002151 3.06789639 -0.00603628 4.60183716 -0.01150513 C8.73192828 -0.0211206 12.86158076 -0.00599529 16.99161887 0.01440096 C21.33154965 0.03209317 25.67146933 0.02844458 30.01142883 0.02767944 C37.29333751 0.02954659 44.57507848 0.04683364 51.85693359 0.07421875 C60.25831838 0.10569869 68.65952001 0.11621334 77.06095952 0.11474764 C86.03590048 0.11339374 95.01077152 0.12728798 103.98569131 0.14564085 C106.55975059 0.14988934 109.13379848 0.15132125 111.70786095 0.15211868 C115.76028569 0.15413724 119.81255853 0.1664252 123.86493301 0.18645096 C125.34631863 0.19225935 126.82772173 0.19476019 128.30911827 0.19359589 C144.31378616 0.18578114 158.29895877 2.65659712 170.1809082 14.15771484 C182.01687606 26.75456634 184.67203774 38.86789018 184.65893555 55.78344727 C184.66492742 57.33002037 184.67173447 58.87659049 184.67929077 60.42315674 C184.69689351 64.60732287 184.7016438 68.79140709 184.70292234 72.97560668 C184.70434804 75.5956117 184.70862561 78.21559618 184.71391678 80.83559608 C184.73239993 89.99286842 184.74058977 99.15008268 184.73901367 108.30737305 C184.73781357 116.81544912 184.75889451 125.32327099 184.790501 133.83128279 C184.81674024 141.15813795 184.82737773 148.48491049 184.82610285 155.81181222 C184.82559535 160.17787236 184.83116002 164.54370653 184.85245895 168.90971947 C184.87197018 173.02127285 184.8718789 177.13238773 184.85742569 181.24395752 C184.85535217 182.74302634 184.85995037 184.24212354 184.87214661 185.74114418 C184.99432003 201.8132804 181.17663749 215.3120821 170.0559082 227.29833984 C157.93714593 238.53036342 143.43898113 241.10032277 127.45556641 240.98754883 C125.90338656 240.99134176 124.35121012 240.99684977 122.79904175 241.00392151 C118.62350653 241.01776306 114.44838858 241.00678839 110.27287698 240.99021029 C105.88269575 240.97625462 101.49253617 240.98283147 97.1023407 240.98634338 C89.7364538 240.9890364 82.37073072 240.97564553 75.00488281 240.95239258 C66.50973184 240.9257589 58.01485401 240.92404857 49.51967555 240.93578094 C41.31572141 240.94658673 33.11186531 240.94035162 24.90791893 240.92622566 C21.43009285 240.9204931 17.95233916 240.92052684 14.4745121 240.92529106 C10.37605733 240.93008901 6.27789904 240.91984352 2.17950058 240.89833641 C0.68240928 240.89280763 -0.81471074 240.89226696 -2.31180382 240.89728928 C-17.36129803 240.94141814 -30.17067701 237.75853179 -41.5065918 227.17333984 C-49.47628008 218.48618571 -55.74127948 206.06392962 -55.77203369 194.20753479 C-55.77774384 192.89131638 -55.78345398 191.57509796 -55.78933716 190.21899414 C-55.79058256 188.75659189 -55.79170764 187.29418954 -55.79272461 185.83178711 C-55.79735327 184.29418316 -55.802378 182.75658035 -55.80776978 181.21897888 C-55.82089775 177.03666644 -55.8273404 172.85437006 -55.83178043 168.67204022 C-55.83471267 166.05592906 -55.83881793 163.43982227 -55.84328461 160.8237133 C-55.85696532 152.62991753 -55.86662716 144.43613177 -55.8704865 136.24232537 C-55.87495813 126.80119764 -55.89246186 117.36021534 -55.92148709 107.91913182 C-55.94316449 100.61278413 -55.95319413 93.30647716 -55.95452762 86.00009769 C-55.95557202 81.6412951 -55.96140082 77.28262911 -55.97934723 72.92386055 C-55.99593121 68.81572836 -55.99793381 64.70783387 -55.98920822 60.59967995 C-55.98844313 59.10019541 -55.99271002 57.60069756 -56.00266647 56.10124588 C-56.10885804 39.09679152 -52.6444659 26.21657844 -40.88549805 13.58740234 C-29.09109126 2.59019116 -15.61863196 -0.12856995 0 0 Z M-38.6315918 25.48583984 C-45.6168944 35.70644049 -45.9314365 45.74911822 -45.92211914 57.73925781 C-45.92811091 59.28084639 -45.93491794 60.82243197 -45.94247437 62.36401367 C-45.96007378 66.53351609 -45.96482712 70.70293631 -45.96610594 74.87247229 C-45.96753132 77.48173334 -45.9718082 80.09097374 -45.97710037 82.70022964 C-45.99557928 91.81514046 -46.0037735 100.92999294 -46.00219727 110.04492188 C-46.00099584 118.5223838 -46.02210379 126.99959115 -46.05368459 135.47698867 C-46.07988727 142.77237477 -46.09056292 150.0676779 -46.08928645 157.36311066 C-46.08877807 161.71286686 -46.09439254 166.06239652 -46.11564255 170.41210556 C-46.13509296 174.50477271 -46.13510337 178.59699874 -46.12060928 182.68968201 C-46.11852862 184.18517328 -46.12317754 185.68069267 -46.1353302 187.17613602 C-46.24415804 201.50428667 -42.82730692 210.8068868 -32.9753418 221.23974609 C-25.95170663 227.84925183 -16.73324965 230.5975085 -7.26426697 230.63301086 C-5.95364288 230.64016617 -4.6430188 230.64732147 -3.29267883 230.6546936 C-1.84176659 230.65753374 -0.3908541 230.66024548 1.06005859 230.6628418 C2.58958083 230.66910911 4.11910154 230.67575614 5.64862061 230.68275452 C10.67109115 230.70377129 15.69356191 230.71415693 20.71606445 230.72412109 C22.4480993 230.72817 24.18013398 230.73228696 25.9121685 230.73647118 C34.05309635 230.75552021 42.19401516 230.76974999 50.334961 230.77808315 C59.71557162 230.78784491 69.09594562 230.81413784 78.47647291 230.85458404 C85.73696463 230.88480872 92.99738877 230.89955816 100.25794214 230.90286416 C104.58936123 230.90520804 108.92052745 230.91408132 113.25187874 230.93932533 C117.33216516 230.9627216 121.41203432 230.96679331 125.49237061 230.95656395 C126.98260835 230.95607122 128.47286744 230.96231343 129.96304131 230.97612 C143.59273736 231.09524187 154.04993213 228.50863549 164.0168457 218.89599609 C171.20621574 211.14096496 174.47135936 202.43561635 174.52230835 191.96702576 C174.53090881 190.64805801 174.53950928 189.32909027 174.54837036 187.97015381 C174.55280507 186.51501504 174.55710348 185.05987586 174.5612793 183.60473633 C174.56918619 182.06683673 174.5774555 180.52893895 174.58605957 178.99104309 C174.61221621 173.94635779 174.62758289 168.90166446 174.6418457 163.85693359 C174.64720838 162.11594196 174.65258589 160.37495036 174.65797806 158.63395882 C174.67959926 151.38764762 174.69833291 144.14133859 174.70960045 136.89500332 C174.72582069 126.53397448 174.75896028 116.17332172 174.8160013 105.81243461 C174.85479957 98.51454215 174.87424492 91.21674986 174.87952101 83.91875702 C174.88316153 79.56657669 174.89504317 75.21479805 174.92762375 70.86273003 C174.95787842 66.76266673 174.963955 62.66324454 174.95223999 58.56309319 C174.95202069 57.06681416 174.96020583 55.57050386 174.97789383 54.07432938 C175.11454096 41.83956624 173.00746524 31.2856803 164.23168945 22.22802734 C163.61680664 21.65310547 163.00192383 21.07818359 162.3684082 20.48583984 C161.78446289 19.93154297 161.20051758 19.37724609 160.59887695 18.80615234 C150.69531973 10.42461549 138.02281096 9.89350554 125.63916016 9.96826172 C124.10668273 9.96282711 122.57421055 9.95569701 121.04174805 9.94702148 C116.91994409 9.92894861 112.79854526 9.9357872 108.67673516 9.94853783 C104.34260064 9.95874397 100.00849823 9.94925171 95.67436218 9.94299316 C88.40263712 9.93574107 81.13107523 9.94524252 73.859375 9.96435547 C65.47323636 9.98614417 57.0874865 9.9790486 48.70135719 9.95704985 C41.47378871 9.9388554 34.24633674 9.9363565 27.01875275 9.94680452 C22.71381047 9.95301413 18.40905055 9.95394484 14.10412025 9.94065857 C10.05812887 9.92904057 6.01263568 9.9372332 1.96669769 9.9602356 C0.4889553 9.96549008 -0.98882959 9.96406529 -2.46655464 9.95518494 C-17.41833856 9.87366619 -28.79962044 13.81611683 -38.6315918 25.48583984 Z " fill="#487BD7" transform="translate(177.631591796875,107.51416015625)"/>
<path d="M0 0 C22 0 22 0 26.25 3.625 C27.20349288 5.39734267 28.11682314 7.19159024 29 9 C30.49486548 11.13039054 32.01218179 13.22397747 33.5625 15.3125 C36.49493204 19.41190876 39.38197688 23.54316263 42.26171875 27.6796875 C49.90887372 38.66077264 57.71037097 49.50522116 65.70996094 60.23266602 C66.84831563 61.79219471 67.92898594 63.39347891 69 65 C69.33 43.55 69.66 22.1 70 0 C77.92 0 85.84 0 94 0 C94 35.64 94 71.28 94 108 C73 108 73 108 67.4375 102.5625 C66.13012695 100.66723633 66.13012695 100.66723633 65.23828125 98.95703125 C62.85050387 94.64261668 60.01536976 90.7383334 57.125 86.75 C56.10369838 85.30033679 55.08548995 83.84848969 54.0703125 82.39453125 C53.56274414 81.66830566 53.05517578 80.94208008 52.53222656 80.19384766 C52.0265918 79.46987793 51.52095703 78.7459082 51 78 C43.96457202 67.93410126 36.81482655 57.98489552 29.3984375 48.1953125 C27.87806438 46.16979913 26.404853 44.1072795 25 42 C24.67 63.78 24.34 85.56 24 108 C16.08 108 8.16 108 0 108 C0 72.36 0 36.72 0 0 Z " fill="#FAFAFA" transform="translate(195,174)"/>
<path d="M0 0 C1.81479202 -0.00407267 3.62958155 -0.00941843 5.44436646 -0.01593018 C10.34106228 -0.02952691 15.23756703 -0.02433689 20.1342659 -0.01479292 C25.2775852 -0.0071565 30.42088899 -0.01425293 35.56420898 -0.01895142 C44.19876011 -0.02439742 52.83323405 -0.01724774 61.46777344 -0.00292969 C71.42667673 0.01339457 81.38539572 0.00810524 91.34429455 -0.0084089 C99.92046521 -0.02205676 108.49658065 -0.02392733 117.07275867 -0.0160929 C122.18369883 -0.01143449 127.29455258 -0.01074083 132.40548706 -0.02070236 C137.2122338 -0.02941791 142.01874469 -0.0232669 146.82546616 -0.00601959 C148.58134445 -0.00207913 150.33724286 -0.00314652 152.09311295 -0.00980759 C169.71545054 -0.07045647 184.27333867 2.52427678 197.5 15.06787109 C211.03762773 29.00435441 213.05781845 43.82857261 213.02856445 62.47729492 C213.03291653 64.31134752 213.03810133 66.1453983 213.04405212 67.97944641 C213.057401 72.94239145 213.05802531 77.90526013 213.05548882 82.86821961 C213.05441618 87.02052979 213.05931006 91.1728247 213.06409425 95.3251316 C213.07517553 105.12684097 213.0756348 114.92851201 213.06958008 124.73022461 C213.06354277 134.82027342 213.07584834 144.91018271 213.09715015 155.00020772 C213.1148016 163.68246718 213.12076186 172.36468237 213.1175124 181.0469591 C213.11570483 186.22390361 213.11828297 191.40074861 213.13222694 196.57767677 C213.14485819 201.44921119 213.14281132 206.32052914 213.12981606 211.19206047 C213.12746211 212.97212931 213.1301422 214.75221365 213.13843918 216.53226471 C213.21457309 234.14687582 210.53494178 248.99168576 198.015625 262.32177734 C188.42996705 271.07965827 176.43882597 276.46186209 163.45233154 276.5531311 C161.54464493 276.56998207 161.54464493 276.56998207 159.59841919 276.58717346 C158.19549613 276.59467293 156.79257252 276.60206999 155.38964844 276.609375 C153.9055247 276.62060014 152.42140399 276.6322328 150.93728638 276.64424133 C146.90246006 276.67556329 142.86761712 276.70071152 138.83273983 276.72443819 C135.44062675 276.74494648 132.04853724 276.76846795 128.65644383 276.79197538 C120.61734105 276.84763601 112.57821737 276.89830519 104.5390625 276.94580078 C96.33199099 276.99436494 88.125001 277.05071821 79.91800952 277.11122191 C72.82023818 277.16328182 65.72244501 277.21043683 58.62461591 277.25390947 C54.40996536 277.2797555 50.19534372 277.30718064 45.98073578 277.33928299 C29.92563129 277.45934038 13.8711054 277.51134901 -2.1811347 277.13022494 C-3.57663598 277.09813388 -4.97224097 277.0702048 -6.36791849 277.04701161 C-22.33377972 276.76514278 -36.46503238 273.53332901 -48.40625 262.34912109 C-58.20076878 251.90995246 -63.41101835 239.00444569 -63.37980652 224.73908997 C-63.38320485 223.59548737 -63.38320485 223.59548737 -63.38667184 222.42878169 C-63.39299338 219.87853104 -63.39218368 217.32833378 -63.39135742 214.77807617 C-63.39434993 212.94809399 -63.39775267 211.11811244 -63.40153503 209.28813171 C-63.41036655 204.32150638 -63.4127127 199.35489827 -63.41335082 194.38826585 C-63.41430027 190.24515942 -63.4179787 186.10205701 -63.42152292 181.95895213 C-63.42966305 172.19032474 -63.43210742 162.42170656 -63.43139648 152.65307617 C-63.43079472 142.56294402 -63.44136721 132.47286517 -63.45714015 122.38274652 C-63.4701918 113.72620796 -63.47558144 105.06968689 -63.47494107 96.41313857 C-63.47468553 91.23982633 -63.47756805 86.06656152 -63.48811913 80.89325905 C-63.49776105 76.03334287 -63.49790634 71.17351989 -63.49060249 66.31360054 C-63.489552 64.52610896 -63.49194685 62.73861168 -63.49796295 60.95112991 C-63.50562011 58.51941717 -63.50108033 56.08803142 -63.49333191 53.65632629 C-63.50104725 52.58460614 -63.50104725 52.58460614 -63.50891846 51.49123508 C-63.47436581 46.61645565 -63.47436581 46.61645565 -61.24609375 44.38818359 C-60.17398413 52.44976414 -60.0917386 60.47889212 -60.11572266 68.59472656 C-60.12113504 70.77985404 -60.11572 72.96478067 -60.109375 75.14990234 C-60.11003498 76.54964238 -60.11131448 77.94938229 -60.11328125 79.34912109 C-60.11440918 80.60515137 -60.11553711 81.86118164 -60.11669922 83.15527344 C-60.223029 85.81191291 -60.53864907 87.86169414 -61.24609375 90.38818359 C-61.34158307 92.98324622 -61.38757202 95.54420421 -61.37109375 98.13818359 C-61.36988525 98.85248535 -61.36867676 99.56678711 -61.36743164 100.30273438 C-61.34005019 103.99543896 -61.20308713 107.60648992 -60.68359375 111.26318359 C-60.24609375 114.38818359 -60.24609375 114.38818359 -61.24609375 116.38818359 C-61.34422391 118.46576569 -61.37687439 120.54656755 -61.37890625 122.62646484 C-61.38075928 123.91198242 -61.3826123 125.1975 -61.38452148 126.52197266 C-61.38038891 127.91487736 -61.37590589 129.30778107 -61.37109375 130.70068359 C-61.37053986 131.39947632 -61.36998596 132.09826904 -61.36941528 132.8182373 C-61.36042863 142.45690678 -61.10714613 152.05491702 -60.53173828 161.67773438 C-60.23396615 167.04308635 -60.3406892 172.18717615 -61.08984375 177.52490234 C-61.41660451 179.48082163 -61.41660451 179.48082163 -60.24609375 181.38818359 C-60.24168398 183.06867261 -60.30542438 184.74954844 -60.40234375 186.42724609 C-60.45616211 187.47114502 -60.50998047 188.51504395 -60.56542969 189.59057617 C-60.6548584 191.28476685 -60.6548584 191.28476685 -60.74609375 193.01318359 C-62.64687949 226.53945702 -62.64687949 226.53945702 -49.87109375 256.57568359 C-44.32442582 262.60453349 -44.32442582 262.60453349 -37.24609375 266.38818359 C-37.24609375 267.04818359 -37.24609375 267.70818359 -37.24609375 268.38818359 C-36.44171875 268.65630859 -35.63734375 268.92443359 -34.80859375 269.20068359 C-31.24609375 270.38818359 -31.24609375 270.38818359 -27.6472168 271.91992188 C-20.13490425 274.39129987 -12.09224949 273.97114471 -4.265625 274.06787109 C-2.39068133 274.10067184 -0.51574765 274.1340474 1.35917664 274.16793823 C27.44098589 274.59848277 53.53136982 274.53870083 79.6160506 274.51675487 C85.39098971 274.51239637 91.16590708 274.51552513 96.94084483 274.52038109 C102.62608771 274.52496258 108.31132139 274.52554008 113.99656552 274.52294242 C117.34340978 274.52141403 120.69022808 274.52150524 124.03707314 274.52447891 C136.333582 274.53303185 148.62860788 274.50040067 160.91870117 274.06738281 C162.20230388 274.03443713 162.20230388 274.03443713 163.51183796 274.00082588 C171.82097438 273.64413155 179.47767147 272.11063295 185.75390625 266.38818359 C188.48923746 264.77916523 189.5127614 264.38818359 192.75390625 264.38818359 C192.75390625 263.72818359 192.75390625 263.06818359 192.75390625 262.38818359 C194.72146495 260.52819075 196.80946223 258.85428162 198.90625 257.14208984 C201.00188794 255.42813278 201.00188794 255.42813278 201.75390625 252.38818359 C202.41390625 252.38818359 203.07390625 252.38818359 203.75390625 252.38818359 C204.02203125 251.56318359 204.29015625 250.73818359 204.56640625 249.88818359 C205.4028919 247.42275219 206.28855287 245.04911691 207.25390625 242.63818359 C211.08427061 232.2385241 211.04656119 221.86995765 211.02856445 210.93579102 C211.03291807 209.18203007 211.03810337 207.42827103 211.04405212 205.67451477 C211.05738441 200.93469418 211.05802718 196.19495361 211.05548882 191.45511794 C211.05441505 187.48676587 211.05931291 183.51842972 211.06409425 179.55008107 C211.07516977 170.18124298 211.07563804 160.81244498 211.06958008 151.44360352 C211.06354321 141.80514077 211.07584853 132.16682412 211.09715015 122.52838629 C211.11481211 114.22910232 211.12076022 105.92986466 211.1175124 97.6305626 C211.11570651 92.68443056 211.11826594 87.73840271 211.13222694 82.79228783 C211.14487545 78.13741854 211.1427953 73.4827756 211.12981606 68.82790947 C211.12746583 67.12888764 211.13012855 65.42984953 211.13843918 63.73084641 C211.21704649 46.39781175 208.80679963 30.15971608 196.421875 17.00927734 C193.35267301 14.02632927 190.8363114 11.74898531 186.75390625 10.38818359 C186.75390625 9.72818359 186.75390625 9.06818359 186.75390625 8.38818359 C185.2546715 7.92735324 183.75446651 7.46967933 182.25390625 7.01318359 C181.41859375 6.75794922 180.58328125 6.50271484 179.72265625 6.23974609 C173.3687768 4.41718594 167.92154828 3.1380687 161.27604675 3.14094543 C160.56799544 3.13853102 159.85994413 3.1361166 159.13043672 3.13362902 C156.78111565 3.1280379 154.43207211 3.13662049 152.08276367 3.14526367 C150.38829475 3.14418954 148.69382618 3.14224891 146.99935913 3.13951111 C142.40982402 3.13467654 137.82038664 3.14230454 133.23086333 3.15246415 C128.40710938 3.16128468 123.58335815 3.15948632 118.75959778 3.15910339 C110.64839051 3.16003934 102.53722068 3.168708 94.42602539 3.18237305 C85.09337516 3.19803945 75.76076607 3.20337306 66.42810363 3.20263749 C56.44597987 3.20195737 46.46387165 3.20893075 36.48175263 3.2180841 C33.63034838 3.22019929 30.7789467 3.2209231 27.92754173 3.22132301 C23.41063224 3.2223413 18.89375615 3.22855633 14.37685776 3.23848915 C12.73518771 3.24136594 11.09351382 3.24264957 9.45184135 3.24206161 C0.84921055 3.24014964 -7.74894579 3.35857085 -16.3457489 3.68632507 C-17.49360578 3.71448908 -17.49360578 3.71448908 -18.66465169 3.74322206 C-31.28681736 4.31870064 -41.70510831 11.54589026 -50.04296875 20.59521484 C-53.21325261 24.61428038 -55.36679842 28.64555245 -57.24609375 33.38818359 C-57.63539062 34.32791016 -58.0246875 35.26763672 -58.42578125 36.23583984 C-59.39424391 38.61024313 -60.33346141 40.99188638 -61.24609375 43.38818359 C-63.09976626 38.54100267 -60.74575566 34.97367833 -58.765625 30.48974609 C-52.24300967 17.17623306 -42.03517814 7.45237906 -27.87307739 2.5701046 C-18.55395509 -0.052604 -9.59349758 -0.03639386 0 0 Z " fill="#000003" transform="translate(167.24609375,89.61181640625)"/>
<path d="M0 0 C1.27883057 -0.0040535 2.55766113 -0.00810699 3.87524414 -0.01228333 C7.30724062 -0.02147489 10.7391893 -0.0224952 14.17119598 -0.02050781 C16.28855132 -0.01953149 18.4058993 -0.02050806 20.52325439 -0.02172852 C41.0391848 -0.02614099 61.46803353 0.33275584 81.9140625 2.16796875 C81.9140625 2.49796875 81.9140625 2.82796875 81.9140625 3.16796875 C80.08695236 3.17343719 80.08695236 3.17343719 78.22293091 3.17901611 C66.71786195 3.2160313 55.21305904 3.27387546 43.70819283 3.35187149 C37.79405772 3.39130286 31.88007054 3.42351278 25.96582031 3.43896484 C20.25330196 3.45415977 14.54119042 3.48865628 8.82885361 3.53627777 C6.65452494 3.55106223 4.48013819 3.55900807 2.30575943 3.5598526 C-0.75086079 3.5622328 -3.8063663 3.58939785 -6.86279297 3.62207031 C-7.75256332 3.61703995 -8.64233368 3.61200958 -9.55906677 3.60682678 C-19.23137758 3.76575134 -28.04970272 7.37764388 -35.0859375 14.0703125 C-40.05561891 19.26838 -42.98704569 24.30210233 -45.0859375 31.16796875 C-45.26216235 31.74236883 -45.4383872 32.31676891 -45.6199522 32.90857506 C-46.22303193 35.83268993 -46.22199478 38.59323811 -46.23310852 41.57998657 C-46.23678521 42.22154989 -46.2404619 42.8631132 -46.24425 43.52411783 C-46.25525443 45.67184844 -46.25912517 47.81953061 -46.26293945 49.96728516 C-46.26920665 51.50828199 -46.27585368 53.04927731 -46.28285217 54.590271 C-46.30386795 59.65001376 -46.3142536 64.70975674 -46.32421875 69.76953125 C-46.32826751 71.51397085 -46.33238447 73.2584103 -46.33656883 75.00284958 C-46.35561662 83.20090653 -46.3698474 91.39895451 -46.3781808 99.59702933 C-46.38794604 109.04669972 -46.41424861 118.49613544 -46.45468169 127.94572318 C-46.48489102 135.2580035 -46.49965432 142.57021674 -46.50296181 149.88255823 C-46.50530718 154.24580263 -46.51420028 158.6087962 -46.53942299 162.97197342 C-46.56279268 167.08098308 -46.56690149 171.18957836 -46.55666161 175.29863739 C-46.55616826 176.80058296 -46.56242905 178.30254956 -46.57621765 179.80443192 C-46.69112031 193.07012335 -44.05860982 202.22900864 -35.0859375 212.16796875 C-25.63968065 221.6142256 -12.36494209 223.43879071 0.4140625 223.58203125 C1.49034912 223.6013974 2.56663574 223.62076355 3.67553711 223.64071655 C7.08830015 223.70014416 10.50109759 223.74675001 13.9140625 223.79296875 C16.23829536 223.83118242 18.56251457 223.87023609 20.88671875 223.91015625 C26.56237818 224.00581517 32.23812089 224.0909688 37.9140625 224.16796875 C35.9140625 226.16796875 35.9140625 226.16796875 34.11271667 226.40174866 C33.02281181 226.39056252 33.02281181 226.39056252 31.91088867 226.37915039 C31.08630661 226.37577164 30.26172455 226.37239288 29.41215515 226.36891174 C28.51946426 226.35545212 27.62677338 226.34199249 26.70703125 226.328125 C25.33071281 226.32032265 25.33071281 226.32032265 23.92658997 226.31236267 C20.98475532 226.29450933 18.0432646 226.26335436 15.1015625 226.23046875 C12.17060461 226.20281594 9.23969849 226.17808162 6.30867004 226.1592865 C4.48333752 226.14707361 2.65803102 226.12951357 0.83280945 226.10597229 C-3.28076179 226.07376109 -7.07373058 226.11554434 -11.0859375 227.16796875 C-11.0859375 226.50796875 -11.0859375 225.84796875 -11.0859375 225.16796875 C-11.89611328 225.46574219 -11.89611328 225.46574219 -12.72265625 225.76953125 C-18.81349337 226.79641619 -26.23464855 223.05982038 -31.1484375 219.60546875 C-33.27185039 217.84348784 -35.16495139 216.12462304 -37.0859375 214.16796875 C-38.3234375 212.96140625 -38.3234375 212.96140625 -39.5859375 211.73046875 C-46.93612313 204.19652848 -49.24791345 195.55682701 -49.69482422 185.14892578 C-49.73298689 184.34030657 -49.77114956 183.53168736 -49.81046867 182.69856453 C-50.321301 170.36778397 -50.23171798 158.02027736 -50.220263 145.68129873 C-50.21769082 142.03274053 -50.22008972 138.38418455 -50.22164917 134.73562622 C-50.22345461 128.62550394 -50.22110524 122.51539386 -50.21630859 116.40527344 C-50.21084463 109.36422472 -50.2126506 102.32320487 -50.218135 95.28215683 C-50.22268363 89.19590601 -50.22330885 83.10966384 -50.22069633 77.02341187 C-50.21914631 73.40555544 -50.21890505 69.78771256 -50.22223282 66.16985703 C-50.22567807 62.14561008 -50.22089327 58.12141254 -50.21533203 54.09716797 C-50.21735626 52.91572708 -50.21938049 51.73428619 -50.22146606 50.51704407 C-50.18943982 37.97837009 -49.37461214 25.26979096 -41.0859375 15.16796875 C-38.8984375 13.98046875 -38.8984375 13.98046875 -37.0859375 13.16796875 C-36.7559375 12.17796875 -36.4259375 11.18796875 -36.0859375 10.16796875 C-32.74982322 6.25994917 -30.10765325 4.31877861 -25.0859375 3.16796875 C-22.2109375 3.04296875 -22.2109375 3.04296875 -20.0859375 3.16796875 C-20.0859375 2.50796875 -20.0859375 1.84796875 -20.0859375 1.16796875 C-13.40232517 -0.05182396 -6.77892825 0.00665559 0 0 Z " fill="#6444AB" transform="translate(179.0859375,114.83203125)"/>
<path d="M0 0 C1.64766044 0.0056028 3.29532592 0.00986966 4.94299316 0.01286316 C9.2568569 0.02425819 13.57041241 0.05367863 17.88415527 0.0869751 C22.29512362 0.11779187 26.70614229 0.13139319 31.1171875 0.14648438 C39.75534899 0.17855409 48.39326103 0.22968485 57.03125 0.29296875 C57.03125 0.62296875 57.03125 0.95296875 57.03125 1.29296875 C48.51833428 2.14976016 40.1185592 2.41616803 31.56640625 2.35546875 C30.33006943 2.35168213 29.0937326 2.34789551 27.81993103 2.34399414 C23.91116669 2.33188309 20.00247998 2.3132425 16.09375 2.29296875 C10.91797084 2.26637596 5.74222792 2.24640746 0.56640625 2.23046875 C-0.61694809 2.22217041 -1.80030243 2.21387207 -3.01951599 2.20532227 C-4.1215889 2.20201904 -5.2236618 2.19871582 -6.35913086 2.1953125 C-7.32443222 2.19007568 -8.28973358 2.18483887 -9.2842865 2.17944336 C-19.76971539 2.62286992 -28.26409789 8.62761324 -35.96875 15.29296875 C-36.70609375 15.92332031 -37.4434375 16.55367187 -38.203125 17.203125 C-43.06841653 21.66889442 -45.7307183 25.75461385 -46.96875 32.29296875 C-46.96875 33.28296875 -46.96875 34.27296875 -46.96875 35.29296875 C-47.43529949 36.56005177 -47.93155952 37.81632089 -48.44548035 39.06494141 C-50.66999593 45.57341312 -50.38081853 52.14007053 -50.34106445 58.94140625 C-50.34349645 60.40594745 -50.34721972 61.87048698 -50.35212708 63.33502197 C-50.3614839 67.28960243 -50.35215477 71.24393311 -50.33879495 75.19849396 C-50.32742357 79.35026556 -50.33159234 83.50202588 -50.33354187 87.65380859 C-50.33442305 94.62406461 -50.32338128 101.59422303 -50.30493164 108.56445312 C-50.28376673 116.60620515 -50.28025522 124.64781431 -50.2864936 132.68958855 C-50.29220186 140.44715116 -50.28652439 148.20466383 -50.27532005 155.96221924 C-50.2706934 159.25385468 -50.2697918 162.54545937 -50.2719059 165.83709717 C-50.2737991 169.71793155 -50.26560613 173.59862196 -50.2498455 177.47942352 C-50.24562803 178.89792027 -50.24473487 180.31643169 -50.24753571 181.73493195 C-50.27207125 196.39195941 -47.86197122 208.43534045 -38.96875 220.29296875 C-38.96875 220.95296875 -38.96875 221.61296875 -38.96875 222.29296875 C-38.411875 222.56109375 -37.855 222.82921875 -37.28125 223.10546875 C-30.25965909 226.71115057 -30.25965909 226.71115057 -28.96875 229.29296875 C-26.92618101 230.38600565 -26.92618101 230.38600565 -24.53125 231.35546875 C-23.72816406 231.69707031 -22.92507812 232.03867187 -22.09765625 232.390625 C-21.39511719 232.68839844 -20.69257813 232.98617187 -19.96875 233.29296875 C-19.30875 233.62296875 -18.64875 233.95296875 -17.96875 234.29296875 C-15.9312737 234.52154989 -13.88834697 234.70321153 -11.84375 234.85546875 C-10.74804688 234.93925781 -9.65234375 235.02304687 -8.5234375 235.109375 C-7.68039063 235.16996094 -6.83734375 235.23054687 -5.96875 235.29296875 C-5.96875 235.62296875 -5.96875 235.95296875 -5.96875 236.29296875 C9.87125 236.29296875 25.71125 236.29296875 42.03125 236.29296875 C41.70125 236.95296875 41.37125 237.61296875 41.03125 238.29296875 C33.64181029 238.38614624 26.25249974 238.45697334 18.86258888 238.50021744 C15.43015232 238.52098532 11.99812125 238.54910087 8.56591797 238.59472656 C4.60910092 238.64698972 0.65244111 238.66600331 -3.3046875 238.68359375 C-4.52175385 238.70423889 -5.73882019 238.72488403 -6.99276733 238.74615479 C-19.40380256 238.74938601 -29.22925208 234.56226914 -38.3203125 226.10546875 C-47.16498911 216.87624098 -53.20613952 205.51171563 -53.22944641 192.53364563 C-53.23327196 191.89093017 -53.23709751 191.24821472 -53.24103898 190.58602303 C-53.25128149 188.45220139 -53.24739364 186.31865327 -53.2434082 184.18481445 C-53.24775968 182.6466192 -53.25294429 181.1084261 -53.25889587 179.57023621 C-53.27225406 175.40466404 -53.27286781 171.23918278 -53.27033257 167.07359338 C-53.26926014 163.58745035 -53.27415349 160.10132551 -53.278938 156.61518639 C-53.29002341 148.38317349 -53.29047682 140.15120621 -53.28442383 131.91918945 C-53.27839195 123.45035012 -53.29067725 114.98167726 -53.3119939 106.51286632 C-53.32966178 99.22341526 -53.33560288 91.93401692 -53.33235615 84.64454526 C-53.33055051 80.29922692 -53.33310673 75.9540272 -53.34707069 71.60872841 C-53.35972816 67.51694375 -53.35763084 63.42541645 -53.34465981 59.33363533 C-53.34231114 57.84060323 -53.3449666 56.34755257 -53.35328293 54.85454178 C-53.44105456 37.8573457 -49.94463499 25.04488083 -38.23828125 12.3984375 C-26.55559879 1.5602863 -15.17566261 -0.15199073 0 0 Z " fill="#733ECD" transform="translate(174.96875,108.70703125)"/>
<path d="M0 0 C3.92729297 -0.00977912 7.85407751 -0.04092659 11.78125 -0.07226562 C14.31249695 -0.07879121 16.84374757 -0.08404342 19.375 -0.08789062 C21.10982635 -0.10641083 21.10982635 -0.10641083 22.87969971 -0.12530518 C33.20950975 -0.09734264 43.9100003 1.39898457 52.671875 7.24023438 C52.671875 7.90023437 52.671875 8.56023437 52.671875 9.24023438 C54.321875 9.90023437 55.971875 10.56023437 57.671875 11.24023438 C57.671875 11.90023437 57.671875 12.56023437 57.671875 13.24023438 C58.331875 13.24023438 58.991875 13.24023438 59.671875 13.24023438 C62.59280237 15.54157109 63.57493326 16.8201535 64.421875 20.49023438 C64.504375 21.39773437 64.586875 22.30523437 64.671875 23.24023438 C66.156875 23.73523438 66.156875 23.73523438 67.671875 24.24023438 C69.99842211 27.60080242 70.1471917 31.26763226 70.671875 35.24023438 C71.001875 35.57023437 71.331875 35.90023437 71.671875 36.24023438 C71.71571947 37.90632424 71.7115463 39.57403992 71.671875 41.24023438 C71.671875 42.23023438 71.671875 43.22023437 71.671875 44.24023438 C71.3876535 46.22978487 71.10287746 48.21936676 70.79296875 50.20507812 C70.65935701 52.45061729 71.11294418 54.06978767 71.671875 56.24023438 C71.76397841 58.00916167 71.8018858 59.781418 71.796875 61.55273438 C71.80074219 62.90818359 71.80074219 62.90818359 71.8046875 64.29101562 C71.671875 67.24023437 71.671875 67.24023437 71.171875 70.50561523 C70.69892207 74.03821338 70.54265696 77.38278666 70.5390625 80.94335938 C70.53777344 82.17054688 70.53648437 83.39773437 70.53515625 84.66210938 C70.53902344 85.92539063 70.54289062 87.18867188 70.546875 88.49023438 C70.54300781 89.76898438 70.53914063 91.04773438 70.53515625 92.36523438 C70.53644531 93.58726562 70.53773438 94.80929688 70.5390625 96.06835938 C70.54075439 97.73753418 70.54075439 97.73753418 70.54248047 99.44042969 C70.5484866 102.3235582 70.5484866 102.3235582 71.671875 105.24023438 C71.515625 107.46679688 71.515625 107.46679688 71.171875 109.86523438 C70.96495144 111.31840213 70.78846374 112.77704575 70.671875 114.24023438 C71.001875 114.57023437 71.331875 114.90023437 71.671875 115.24023438 C71.8028781 118.12230254 71.78336518 120.72739307 71.16917419 123.55259705 C70.60657482 126.59314708 70.56666722 129.40017454 70.59008789 132.49243164 C70.59988426 134.3557589 70.59988426 134.3557589 70.60987854 136.25672913 C70.61849002 137.2456953 70.61849002 137.2456953 70.62727547 138.25464058 C70.64479201 140.33764992 70.65500674 142.42058111 70.66319275 144.50364685 C70.68751999 150.42446285 70.72285661 156.34517446 70.76782227 162.26586914 C70.79488079 165.89615622 70.81174479 169.526382 70.82269096 173.15675163 C70.82882878 174.52844431 70.8387407 175.90012627 70.85276985 177.27176094 C71.09145993 200.83763206 71.09145993 200.83763206 64.234375 208.30273438 C63.45191406 209.18058594 62.66945313 210.0584375 61.86328125 210.96289062 C61.14011719 211.71441406 60.41695313 212.4659375 59.671875 213.24023438 C59.176875 213.77390625 58.681875 214.30757812 58.171875 214.85742188 C56.289393 216.59283497 54.26077211 217.91690856 52.109375 219.30273438 C49.70316179 220.85551236 47.70062936 222.21148001 45.671875 224.24023438 C42.921875 224.90820312 42.921875 224.90820312 39.671875 225.42773438 C38.599375 225.60691406 37.526875 225.78609375 36.421875 225.97070312 C33.671875 226.24023438 33.671875 226.24023438 31.671875 225.24023438 C31.341875 225.90023437 31.011875 226.56023437 30.671875 227.24023438 C30.671875 226.58023438 30.671875 225.92023438 30.671875 225.24023438 C29.681875 224.91023437 28.691875 224.58023438 27.671875 224.24023438 C29.5590625 223.86898437 29.5590625 223.86898437 31.484375 223.49023438 C43.50913109 220.76764809 53.34426746 216.53849362 60.671875 206.24023438 C64.8225259 198.93838109 66.78467228 193.16690859 66.82577515 184.72142029 C66.83437561 183.40245255 66.84297607 182.0834848 66.85183716 180.72454834 C66.85627187 179.26940958 66.86057027 177.81427039 66.86474609 176.35913086 C66.87265299 174.82123126 66.8809223 173.28333348 66.88952637 171.74543762 C66.91568301 166.70075232 66.93104968 161.65605899 66.9453125 156.61132812 C66.95067518 154.87033649 66.95605269 153.12934489 66.96144485 151.38835335 C66.98306605 144.14204215 67.0017997 136.89573312 67.01306725 129.64939785 C67.02928749 119.28836901 67.06242708 108.92771625 67.11946809 98.56682914 C67.15826636 91.26893669 67.17771171 83.97114439 67.18298781 76.67315155 C67.18662833 72.32097122 67.19850997 67.96919258 67.23109055 63.61712456 C67.26134522 59.51706127 67.2674218 55.41763907 67.25570679 51.31748772 C67.25548748 49.82120869 67.26367262 48.32489839 67.28136063 46.82872391 C67.4172898 34.65824353 65.32791192 24.0242942 56.609375 14.98632812 C46.19553903 5.60127837 35.23666698 3.80222331 21.54296875 3.76367188 C20.31385269 3.74809235 19.08473663 3.73251282 17.81837463 3.71646118 C13.91538139 3.66930061 10.01256059 3.64134749 6.109375 3.61523438 C0.98300098 3.56650032 -4.1432637 3.50996914 -9.26953125 3.45117188 C-11.10603745 3.43192657 -11.10603745 3.43192657 -12.97964478 3.41229248 C-22.45096107 3.29628673 -31.88053825 2.90932917 -41.328125 2.24023438 C-41.328125 1.91023438 -41.328125 1.58023438 -41.328125 1.24023438 C-27.56649218 0.07122961 -13.80358795 0.02078854 0 0 Z " fill="#23B6D3" transform="translate(284.328125,114.759765625)"/>
<path d="M0 0 C8.23302691 -0.14005239 16.46554245 -0.24614579 24.69947243 -0.31087303 C28.52436522 -0.3419655 32.34843328 -0.38402158 36.17285156 -0.45263672 C39.87527743 -0.51863474 43.57691871 -0.55387126 47.27988815 -0.56926346 C48.68073225 -0.58020808 50.08154157 -0.60157332 51.48204422 -0.63438034 C64.39664917 -0.9244119 74.5329018 1.88204033 84.5 10.375 C94.83014162 20.48499106 100.96922269 31.26080923 101.26742554 45.91081238 C101.29261483 48.70650765 101.29269286 51.50181896 101.29052734 54.29760742 C101.29651921 55.84418052 101.30332627 57.39075065 101.31088257 58.93731689 C101.32848531 63.12148303 101.33323559 67.30556725 101.33451414 71.48976684 C101.33593984 74.10977186 101.34021741 76.72975634 101.34550858 79.34975624 C101.36399172 88.50702857 101.37218156 97.66424284 101.37060547 106.8215332 C101.36940537 115.32960928 101.39048631 123.83743115 101.4220928 132.34544295 C101.44833204 139.67229811 101.45896953 146.99907065 101.45769465 154.32597238 C101.45718715 158.69203252 101.46275182 163.05786669 101.48405075 167.42387962 C101.50356198 171.53543301 101.50347069 175.64654789 101.48901749 179.75811768 C101.48694397 181.25718649 101.49154217 182.7562837 101.5037384 184.25530434 C101.62591183 200.32744056 97.80822928 213.82624226 86.6875 225.8125 C75.82495052 235.96874021 64.63328673 238.46059346 50.21875 238.29296875 C48.79529266 238.28736409 47.37182948 238.28309811 45.94836426 238.28010559 C42.22631473 238.2687251 38.50462395 238.23931791 34.78271484 238.20599365 C30.97498424 238.17514493 27.16719491 238.16156883 23.359375 238.14648438 C15.90608756 238.11444045 8.45309431 238.06332813 1 238 C1 237.67 1 237.34 1 237 C1.73169907 236.99413376 2.46339813 236.98826752 3.2172699 236.98222351 C10.14596674 236.92408384 17.07439339 236.85188691 24.00277615 236.76428509 C27.5639204 236.7197438 31.12495454 236.68045322 34.6862793 236.65356445 C38.78983669 236.62234345 42.89279699 236.56756222 46.99609375 236.51171875 C48.26206894 236.50532883 49.52804413 236.4989389 50.8323822 236.49235535 C60.10019517 236.33955353 67.14243916 235.00026599 75 230 C75.66 230 76.32 230 77 230 C77 229.34 77 228.68 77 228 C77.78375 227.9175 78.5675 227.835 79.375 227.75 C82.08238172 227.30162561 82.08238172 227.30162561 83 225.3125 C83.33 224.549375 83.66 223.78625 84 223 C85.55384104 220.85296965 87.20931949 218.96974856 89 217 C89.66 217 90.32 217 91 217 C91.268125 216.29875 91.53625 215.5975 91.8125 214.875 C93 212 93 212 94.50090027 209.21955872 C101.09648072 195.05448478 98.27873322 175.78567714 98.23571944 160.47421098 C98.22683243 156.63691783 98.22869832 152.79962739 98.2290802 148.96232605 C98.2281493 142.535003 98.21953719 136.10772773 98.20581055 129.68041992 C98.19001738 122.25819897 98.1848153 114.83602993 98.1855461 107.41379339 C98.1862216 99.48009562 98.17928921 91.54641773 98.1700995 83.61272597 C98.16797224 81.335763 98.16725892 79.05880325 98.16686058 76.78183937 C98.16585522 73.20875531 98.15974285 69.63571468 98.14969444 66.06264496 C98.14539014 64.13026372 98.14594008 62.19787358 98.14663696 60.26548767 C98.14023949 58.53551041 98.14023949 58.53551041 98.13371277 56.77058411 C98.131199 55.2711185 98.131199 55.2711185 98.12863445 53.74136066 C98.00274831 51.05856989 97.54702189 48.62370489 97 46 C97 43.66666667 97 41.33333333 97 39 C96.71479595 37.32442621 96.40044304 35.65182755 96 34 C95.67 34 95.34 34 95 34 C95 32.02 95 30.04 95 28 C94.34 28 93.68 28 93 28 C92.71125 27.030625 92.4225 26.06125 92.125 25.0625 C91.35785318 21.89335797 91.35785318 21.89335797 89 21 C88.690625 20.01 88.38125 19.02 88.0625 18 C87.711875 17.01 87.36125 16.02 87 15 C86.01 14.67 85.02 14.34 84 14 C84 13.34 84 12.68 84 12 C83.401875 11.896875 82.80375 11.79375 82.1875 11.6875 C80 11 80 11 78.6875 9.5625 C76.53258088 7.56720452 74.63101746 7.08118658 71.8125 6.3125 C70.91144531 6.06113281 70.01039063 5.80976562 69.08203125 5.55078125 C68.05142578 5.27814453 68.05142578 5.27814453 67 5 C67 4.34 67 3.68 67 3 C66.05125 3.020625 65.1025 3.04125 64.125 3.0625 C61 3 61 3 59 2 C57.29511239 1.9036992 55.58651023 1.86924965 53.87890625 1.8671875 C52.86119141 1.86589844 51.84347656 1.86460938 50.79492188 1.86328125 C49.72822266 1.86714844 48.66152344 1.87101562 47.5625 1.875 C46.49966797 1.87113281 45.43683594 1.86726563 44.34179688 1.86328125 C43.32279297 1.86457031 42.30378906 1.86585937 41.25390625 1.8671875 C40.31877197 1.86831543 39.3836377 1.86944336 38.42016602 1.87060547 C35.85691378 1.90040229 35.85691378 1.90040229 33 3 C33 2.34 33 1.68 33 1 C31.77410156 1.16371094 30.54820312 1.32742187 29.28515625 1.49609375 C23.33437982 2.15729113 17.41789017 2.10936261 11.4375 2.0625 C10.33341797 2.05798828 9.22933594 2.05347656 8.09179688 2.04882812 C5.394473 2.0371514 2.69726653 2.02077525 0 2 C0 1.34 0 0.68 0 0 Z " fill="#2DA5C6" transform="translate(261,109)"/>
<path d="M0 0 C3.92729297 -0.00977912 7.85407751 -0.04092659 11.78125 -0.07226562 C14.31249695 -0.07879121 16.84374757 -0.08404342 19.375 -0.08789062 C21.10982635 -0.10641083 21.10982635 -0.10641083 22.87969971 -0.12530518 C33.20950975 -0.09734264 43.9100003 1.39898457 52.671875 7.24023438 C52.671875 7.90023437 52.671875 8.56023437 52.671875 9.24023438 C54.321875 9.90023437 55.971875 10.56023437 57.671875 11.24023438 C57.671875 11.90023437 57.671875 12.56023437 57.671875 13.24023438 C58.331875 13.24023438 58.991875 13.24023438 59.671875 13.24023438 C62.59280237 15.54157109 63.57493326 16.8201535 64.421875 20.49023438 C64.504375 21.39773437 64.586875 22.30523437 64.671875 23.24023438 C66.156875 23.73523438 66.156875 23.73523438 67.671875 24.24023438 C70.07352366 27.61408764 69.90589934 30.7915089 69.87442017 34.83343506 C69.87204546 35.49430469 69.86967076 36.15517432 69.8672241 36.8360703 C69.85681375 39.04876424 69.83193989 41.26105699 69.80712891 43.47363281 C69.796702 45.06040407 69.78716692 46.6471814 69.77845764 48.23396301 C69.75228389 52.54154315 69.71361734 56.84893174 69.67273378 61.156394 C69.63212326 65.65802454 69.60296567 70.15972878 69.57260132 74.66143799 C69.51335803 83.18600372 69.44379149 91.71045281 69.37053049 100.23490834 C69.28762684 109.93971719 69.21620952 119.64459987 69.14576459 129.3495059 C69.00059659 149.31319086 68.8409793 169.27673877 68.671875 189.24023438 C68.341875 189.24023438 68.011875 189.24023438 67.671875 189.24023438 C67.67133023 188.44731365 67.67078547 187.65439293 67.67022419 186.83744431 C67.65522888 167.50562624 67.6126711 148.17404647 67.53978443 128.84235764 C67.50519453 119.4935116 67.4797868 110.1448121 67.47631836 100.79589844 C67.4732701 92.64329065 67.45266417 84.49094423 67.41135043 76.33843732 C67.39009666 72.02537184 67.37738032 67.71267723 67.38572121 63.39955902 C67.39331003 59.3314615 67.3772449 55.26411241 67.34381485 51.19615173 C67.33563927 49.7112117 67.33576279 48.2261964 67.34527779 46.74126434 C67.41518894 34.6210053 65.28928494 23.98425201 56.609375 14.98632812 C46.19553903 5.60127837 35.23666698 3.80222331 21.54296875 3.76367188 C20.31385269 3.74809235 19.08473663 3.73251282 17.81837463 3.71646118 C13.91538139 3.66930061 10.01256059 3.64134749 6.109375 3.61523438 C0.98300098 3.56650032 -4.1432637 3.50996914 -9.26953125 3.45117188 C-11.10603745 3.43192657 -11.10603745 3.43192657 -12.97964478 3.41229248 C-22.45096107 3.29628673 -31.88053825 2.90932917 -41.328125 2.24023438 C-41.328125 1.91023438 -41.328125 1.58023438 -41.328125 1.24023438 C-27.56649218 0.07122961 -13.80358795 0.02078854 0 0 Z " fill="#3B8CB2" transform="translate(284.328125,114.759765625)"/>
<path d="M0 0 C0.33 0 0.66 0 1 0 C1.00238835 0.79991804 1.00477671 1.59983608 1.00723743 2.42399406 C1.06644755 21.91363366 1.14203608 41.40314727 1.23571491 60.89265251 C1.28062544 70.31774653 1.32005102 79.74280316 1.34643555 89.16796875 C1.36945407 97.38569722 1.40289505 105.6033069 1.44870156 113.82094109 C1.47258188 118.16962499 1.49134461 122.51819163 1.49761391 126.86693954 C1.50368833 130.96606225 1.52377267 135.06488513 1.55427551 139.16389656 C1.56301812 140.66257833 1.56678621 142.16129935 1.56500816 143.66000557 C1.5532364 158.16996552 4.21185976 169.99255075 14.375 180.875 C23.99529015 189.8036353 37.24764712 191.43172145 49.890625 191.51171875 C50.96125183 191.52966995 52.03187866 191.54762115 53.13494873 191.56611633 C56.50659409 191.61967978 59.87810243 191.65394037 63.25 191.6875 C65.55600844 191.72072078 67.86199892 191.75521473 70.16796875 191.79101562 C75.77852267 191.87537421 81.3890956 191.94394869 87 192 C85 194 85 194 83.19865417 194.23377991 C82.10874931 194.22259377 82.10874931 194.22259377 80.99682617 194.21118164 C80.17224411 194.20780289 79.34766205 194.20442413 78.49809265 194.20094299 C77.60540176 194.18748337 76.71271088 194.17402374 75.79296875 194.16015625 C74.41665031 194.1523539 74.41665031 194.1523539 73.01252747 194.14439392 C70.07069282 194.12654058 67.1292021 194.09538561 64.1875 194.0625 C61.25654211 194.03484719 58.32563599 194.01011287 55.39460754 193.99131775 C53.56927502 193.97910486 51.74396852 193.96154482 49.91874695 193.93800354 C45.80517571 193.90579234 42.01220692 193.94757559 38 195 C38 194.34 38 193.68 38 193 C37.18982422 193.29777344 37.18982422 193.29777344 36.36328125 193.6015625 C30.27244413 194.62844744 22.85128895 190.89185163 17.9375 187.4375 C15.81408711 185.67551909 13.92098611 183.95665429 12 182 C10.7625 180.7934375 10.7625 180.7934375 9.5 179.5625 C2.14981437 172.02855973 -0.16197595 163.38885826 -0.60888672 152.98095703 C-0.64704939 152.17233782 -0.68521206 151.36371861 -0.72453117 150.53059578 C-1.2353635 138.19981522 -1.14578048 125.85230861 -1.1343255 113.51332998 C-1.13175332 109.86477178 -1.13415222 106.2162158 -1.13571167 102.56765747 C-1.13751711 96.45753519 -1.13516774 90.34742511 -1.13037109 84.23730469 C-1.12490713 77.19625597 -1.1267131 70.15523612 -1.1321975 63.11418808 C-1.13674613 57.02793726 -1.13737135 50.94169509 -1.13475883 44.85544312 C-1.13320881 41.23758669 -1.13296755 37.61974381 -1.13629532 34.00188828 C-1.13974057 29.97764133 -1.13495577 25.95344379 -1.12939453 21.92919922 C-1.13141876 20.74775833 -1.13344299 19.56631744 -1.13552856 18.34907532 C-1.11968937 12.14783279 -0.81921289 6.14839124 0 0 Z " fill="#7A43D7" transform="translate(130,147)"/>
<path d="M0 0 C1.28541289 2.57082579 0.69011526 3.25337538 0 6 C-0.09776345 8.13342092 -0.13921525 10.26964378 -0.14717102 12.4052887 C-0.15432632 13.72432693 -0.16148163 15.04336517 -0.16885376 16.40237427 C-0.1716939 17.8627317 -0.17440564 19.32308938 -0.17700195 20.78344727 C-0.18326921 22.32282158 -0.18991625 23.86219439 -0.19691467 25.40156555 C-0.21793195 30.45650179 -0.22831711 35.51143823 -0.23828125 40.56640625 C-0.24233013 42.30958509 -0.24644709 44.05276378 -0.25063133 45.79594231 C-0.26968044 53.9891959 -0.28391023 62.18244051 -0.2922433 70.37571198 C-0.30200523 79.81688246 -0.32829853 89.25781784 -0.36874419 98.69890553 C-0.39896789 106.00610597 -0.41371822 113.31323928 -0.41702431 120.62050098 C-0.4193683 124.97986505 -0.42824296 129.33897789 -0.45348549 133.69827461 C-0.47688003 137.80482508 -0.48095414 141.91096095 -0.47072411 146.01756096 C-0.47023133 147.51747395 -0.47647477 149.01740815 -0.49028015 150.51725769 C-0.62940233 166.53993518 4.54158081 178.29869424 14 191 C11 191 11 191 9.375 189.6875 C8 188 8 188 7 185 C6.34 184.67 5.68 184.34 5 184 C3.9296875 182.0390625 3.9296875 182.0390625 2.875 179.625 C2.52179688 178.83351563 2.16859375 178.04203125 1.8046875 177.2265625 C1 175 1 175 1 172 C0.34 172 -0.32 172 -1 172 C-3.38542132 162.47566674 -4.43093981 153.81837589 -4.35644531 143.99658203 C-4.35723903 142.66088731 -4.35934494 141.32519284 -4.36264038 139.98950195 C-4.36771295 136.40661265 -4.35436146 132.82401752 -4.33711338 129.24117517 C-4.32190001 125.46107439 -4.32324716 121.68097466 -4.32244873 117.90084839 C-4.3187726 111.55477998 -4.30389334 105.20882077 -4.28125 98.86279297 C-4.25240932 90.76439093 -4.24202449 82.6660767 -4.2375679 74.56762886 C-4.2335595 67.54705559 -4.22106291 60.52650072 -4.20722103 53.50594091 C-4.20316098 51.27756257 -4.20021582 49.04918485 -4.19742584 46.8208046 C-4.13474846 4.55635951 -4.13474846 4.55635951 0 0 Z " fill="#110244" transform="translate(123,144)"/>
<path d="M0 0 C-5.115249 2.51202025 -9.2836275 3.44390939 -15.0090332 3.43237305 C-15.78311051 3.44255337 -16.55718782 3.45273369 -17.35472202 3.4632225 C-19.92014852 3.49336738 -22.4852006 3.50262644 -25.05078125 3.51171875 C-26.88031166 3.52881756 -28.70983081 3.54716148 -30.53933716 3.56666565 C-35.44786297 3.61506724 -40.35633379 3.64493967 -45.26502609 3.67036438 C-49.32791185 3.69320955 -53.39069947 3.72550193 -57.45351887 3.75786018 C-67.70148525 3.8393488 -77.94946332 3.90092231 -88.19762135 3.9521656 C-94.68556122 3.98536781 -101.17332703 4.02936391 -107.66113281 4.08251953 C-115.49315537 4.14662185 -123.32510627 4.19546254 -131.15731812 4.22915649 C-134.00522893 4.24170637 -136.85299806 4.26043308 -139.70083618 4.28427124 C-143.61177081 4.31622206 -147.52252577 4.32370829 -151.43359375 4.328125 C-152.57611603 4.34041641 -153.71863831 4.35270782 -154.89578247 4.3653717 C-155.92976166 4.36242599 -156.96374084 4.35948029 -158.02905273 4.35644531 C-159.37059669 4.36191376 -159.37059669 4.36191376 -160.73924255 4.36749268 C-163.47384862 3.92297453 -164.16914191 2.99030703 -166 1 C-165.18516553 0.99576806 -164.37033106 0.99153612 -163.53080463 0.98717594 C-143.70916509 0.88389624 -123.88756121 0.77526246 -104.06598377 0.66066074 C-94.48044358 0.60536964 -84.89489967 0.55189439 -75.30932617 0.50268555 C-66.95508869 0.45979334 -58.60087815 0.41350263 -50.24668235 0.36312145 C-45.82273091 0.33656111 -41.39878468 0.31170906 -36.97480202 0.29092598 C-32.81095835 0.27131131 -28.64716578 0.24715316 -24.48336792 0.21950912 C-22.9551607 0.21016425 -21.42694229 0.20247982 -19.89871788 0.19658089 C-17.81159856 0.188276 -15.72460182 0.17398736 -13.63752747 0.15821838 C-12.46961576 0.15176583 -11.30170404 0.14531328 -10.09840107 0.1386652 C-7.03218425 0.0826695 -7.03218425 0.0826695 -4.21015453 -0.57238865 C-2 -1 -2 -1 0 0 Z " fill="#000B35" transform="translate(328,347)"/>
<path d="M0 0 C2.7549036 2.7549036 2.25381852 4.32090282 2.26069641 8.1806488 C2.26778122 9.50008484 2.27486603 10.81952087 2.28216553 12.17893982 C2.27987148 13.64981113 2.27736175 15.12068212 2.2746582 16.59155273 C2.27900328 18.13376106 2.28418573 19.67596723 2.29014587 21.21817017 C2.30356942 25.41442453 2.30411082 29.61058902 2.30158257 33.80686069 C2.3005151 37.30602786 2.30539049 40.80517669 2.310188 44.30433995 C2.32129485 52.55748075 2.32171402 60.81057604 2.31567383 69.0637207 C2.30963227 77.58659776 2.32194694 86.1093098 2.3432439 94.6321587 C2.36083962 101.94175028 2.36686446 109.25128924 2.36360615 116.56090122 C2.36178986 120.9300399 2.3644638 125.2990609 2.37832069 129.66818047 C2.39086148 133.77628667 2.38899076 137.88413502 2.37590981 141.99223709 C2.37353623 143.50194573 2.37630654 145.01167231 2.38453293 146.5213604 C2.39493686 148.57866533 2.38695233 150.63509483 2.3742218 152.69236755 C2.37438954 153.84477653 2.37455729 154.9971855 2.37473011 156.18451595 C2 159 2 159 -1 162 C-0.67 108.54 -0.34 55.08 0 0 Z " fill="#002A43" transform="translate(362,149)"/>
<path d="M0 0 C2.40583972 0.08756683 4.78215404 0.11536269 7.18774414 0.09765625 C7.92770126 0.09619598 8.66765839 0.09473572 9.43003845 0.0932312 C11.03862739 0.08942189 12.64721212 0.08330186 14.25578499 0.07516479 C16.79760196 0.06243768 19.33936696 0.0558952 21.88121033 0.05102539 C27.27499683 0.0395795 32.66874063 0.02033079 38.0625 0 C44.3140526 -0.02354738 50.5655809 -0.04395272 56.81716728 -0.05593872 C59.32834478 -0.06244993 61.83944839 -0.0749573 64.3506012 -0.08764648 C65.88095026 -0.09127704 67.41130002 -0.09462902 68.94165039 -0.09765625 C69.99752853 -0.10540573 69.99752853 -0.10540573 71.07473755 -0.11331177 C72.71692611 -0.11349323 74.35899222 -0.06226368 76 0 C76.33 0.33 76.66 0.66 77 1 C79.24882595 1.49277063 81.5074309 1.89872541 83.7734375 2.3046875 C86.28910859 3.09028303 87.23062198 4.10618779 89 6 C88.17372825 5.78757282 87.34745649 5.57514565 86.4961462 5.35628128 C77.27503842 3.16089407 68.55650623 2.5798017 59.10961914 2.64355469 C57.5721322 2.64276152 56.03464547 2.64065726 54.49716187 2.63735962 C50.36738903 2.63227863 46.2378705 2.64565069 42.10813832 2.66288662 C37.76728439 2.67805083 33.42643201 2.67675149 29.08555603 2.67755127 C21.80723798 2.68122851 14.52901511 2.69612263 7.25073242 2.71875 C-2.07941592 2.74769812 -11.4094881 2.75798349 -20.73967648 2.7624321 C-28.78754007 2.76641621 -36.83538726 2.77890969 -44.88323903 2.79277897 C-47.45950677 2.79686653 -50.03577393 2.79979774 -52.61204338 2.80257416 C-56.66116064 2.80748309 -60.71023229 2.81771318 -64.75932693 2.83201218 C-66.2415596 2.83651593 -67.72379838 2.83936926 -69.20603752 2.84041977 C-71.23473395 2.84217967 -73.26342107 2.85071811 -75.292099 2.85955811 C-76.99180296 2.8640201 -76.99180296 2.8640201 -78.72584438 2.86857224 C-82.20592597 3.00826607 -85.56249047 3.45189378 -89 4 C-85.21952387 0.47435372 -82.99604065 -0.49545191 -77.84301758 -0.43823242 C-76.62016556 -0.43470261 -75.39731354 -0.43117279 -74.1374054 -0.42753601 C-72.16093269 -0.39186272 -72.16093269 -0.39186272 -70.14453125 -0.35546875 C-68.75991548 -0.34544363 -67.37528439 -0.33736615 -65.99064636 -0.33113098 C-62.33941498 -0.31021264 -58.68884003 -0.26623463 -55.03790283 -0.21636963 C-49.25345665 -0.14132937 -43.46859987 -0.10082956 -37.68383408 -0.05890274 C-36.28550216 -0.04830184 -34.88717818 -0.03659528 -33.4888649 -0.02376938 C-24.60404093 0.05642995 -15.76682051 -0.02042484 -6.90473938 -0.72270203 C-2.17968595 -1.08984297 -2.17968595 -1.08984297 0 0 Z " fill="#05023D" transform="translate(244,106)"/>
<path d="M0 0 C0.99 0.33 1.98 0.66 3 1 C4.0949356 3.32673814 5.0620886 5.61348199 6 8 C7.54628697 11.29426355 9.15237047 14.22637899 11.1875 17.25 C13 20 13 20 13 22 C13.556875 22.268125 14.11375 22.53625 14.6875 22.8125 C21.70909091 26.41818182 21.70909091 26.41818182 23 29 C25.04256899 30.0930369 25.04256899 30.0930369 27.4375 31.0625 C28.24058594 31.40410156 29.04367188 31.74570312 29.87109375 32.09765625 C30.57363281 32.39542969 31.27617187 32.69320312 32 33 C32.99 33.495 32.99 33.495 34 34 C36.0374763 34.22858114 38.08040303 34.41024278 40.125 34.5625 C41.22070312 34.64628906 42.31640625 34.73007812 43.4453125 34.81640625 C44.70988281 34.90728516 44.70988281 34.90728516 46 35 C46 35.33 46 35.66 46 36 C61.84 36 77.68 36 94 36 C93.505 36.99 93.505 36.99 93 38 C85.61056029 38.09317749 78.22124974 38.16400459 70.83133888 38.20724869 C67.39890232 38.22801657 63.96687125 38.25613212 60.53466797 38.30175781 C56.57785092 38.35402097 52.62119111 38.37303456 48.6640625 38.390625 C47.44699615 38.41127014 46.22992981 38.43191528 44.97598267 38.45318604 C32.56494744 38.45641726 22.73949792 34.26930039 13.6484375 25.8125 C6.61964177 18.47810446 1.32853321 10.20555056 0 0 Z " fill="#7245CA" transform="translate(123,309)"/>
<path d="M0 0 C0.33 0 0.66 0 1 0 C1.00054477 0.79899625 1.00108953 1.5979925 1.00165081 2.42120075 C1.01664132 21.89453564 1.05917982 41.36763383 1.13209057 60.84084034 C1.16669126 70.25809614 1.19208962 79.67520631 1.19555664 89.0925293 C1.19860339 97.30409037 1.21918918 105.51539176 1.26052457 113.7268526 C1.28179194 118.07174362 1.29448759 122.41626604 1.28615379 126.76120949 C1.27857371 130.85802948 1.29459534 134.95410505 1.32806015 139.05078888 C1.33624609 140.54743698 1.33609968 142.04415978 1.32659721 143.54080009 C1.27502149 152.56344592 2.04881552 160.19799324 7 168 C7.99882963 169.001169 8.99853763 170.00146451 10 171 C10 171.66 10 172.32 10 173 C10.66 173 11.32 173 12 173 C12.33 174.32 12.66 175.64 13 177 C14.65 177.33 16.3 177.66 18 178 C18.495 179.98 18.495 179.98 19 182 C19.66 182 20.32 182 21 182 C20.67 182.66 20.34 183.32 20 184 C10.8714022 178.85053457 3.62784148 170.165494 0.41376591 160.17839432 C-0.13948577 157.26563544 -0.12260803 154.48611501 -0.12025452 151.52069092 C-0.12110894 150.87207195 -0.12196337 150.22345297 -0.12284368 149.55517888 C-0.12448941 147.38408846 -0.11899199 145.21307548 -0.11352539 143.04199219 C-0.1132433 141.48477175 -0.11340169 139.92755117 -0.1139679 138.37033081 C-0.114255 134.14341812 -0.1083722 129.91653375 -0.10139394 125.68962765 C-0.09514606 121.27202943 -0.09455546 116.85443057 -0.09336853 112.43682861 C-0.09025945 104.07170408 -0.08205176 95.7065926 -0.07201904 87.34147382 C-0.06084477 77.81798484 -0.05534414 68.29449524 -0.05032361 58.77100134 C-0.03986881 39.18066027 -0.02227754 19.59033096 0 0 Z " fill="#0F0244" transform="translate(132,150)"/>
<path d="M0 0 C4.06676647 4.06676647 4.25035243 9.15670525 4.25396729 14.66598511 C4.25708727 15.3106684 4.26020725 15.9553517 4.26342177 16.61957085 C4.27135776 18.76584387 4.26509548 20.91183067 4.25878906 23.05810547 C4.26150094 24.60264246 4.26506298 26.14717816 4.26940918 27.69171143 C4.27851359 31.87774255 4.27499656 36.06367489 4.26865101 40.2497077 C4.26357912 44.63686224 4.26828594 49.02400845 4.27142334 53.41116333 C4.27506028 60.78014642 4.27027181 68.14908941 4.26074219 75.51806641 C4.24986624 84.02612683 4.25337806 92.53409134 4.264395 101.04214942 C4.27348526 108.35614365 4.27474441 115.67010908 4.26951766 122.98410714 C4.26640648 127.34828584 4.265965 131.71241953 4.27259064 136.07659531 C4.27838849 140.18226587 4.27432272 144.28781342 4.26280212 148.39347076 C4.2601682 149.89624198 4.26089885 151.39902362 4.26532745 152.90179062 C4.28480303 160.18468427 4.26103277 167.00726627 2 174 C1.67 174 1.34 174 1 174 C1.16233124 172.75756531 1.32466248 171.51513062 1.49191284 170.23504639 C2.11793915 164.56407177 2.14025066 158.93953412 2.12939453 153.23925781 C2.13114685 152.09459045 2.13289917 150.9499231 2.13470459 149.77056885 C2.13909224 145.99807196 2.13619203 142.22562235 2.1328125 138.453125 C2.13348735 135.80019067 2.13445798 133.14725772 2.13571167 130.49432373 C2.13752835 124.92622374 2.13514553 119.35813703 2.13037109 113.79003906 C2.12498301 107.43464865 2.1266529 101.0792906 2.1321975 94.72390103 C2.13680792 89.21078259 2.13733976 83.69767362 2.13475883 78.18455386 C2.13323181 74.91802547 2.13331567 71.65151474 2.13629532 68.38498688 C2.14597783 54.76480667 2.01367167 41.16302651 1.55419922 27.54980469 C1.51547762 26.39655323 1.47675602 25.24330177 1.43686104 24.0551033 C1.13866765 16.02177778 0.61755351 8.01479512 0 0 Z " fill="#001D35" transform="translate(348,140)"/>
<path d="M0 0 C0.7222023 -0.00014603 1.4444046 -0.00029205 2.18849182 -0.0004425 C4.57466642 0.00025394 6.96076287 0.00803379 9.34692383 0.01586914 C11.00173398 0.01773427 12.65654469 0.01915773 14.31135559 0.02015686 C18.66626511 0.02397454 23.02114126 0.03379844 27.3760376 0.04486084 C31.82010446 0.05509106 36.26417671 0.05965794 40.70825195 0.06469727 C49.4276683 0.07542137 58.14705754 0.09248882 66.86645508 0.11352539 C66.86645508 0.44352539 66.86645508 0.77352539 66.86645508 1.11352539 C58.35353936 1.9703168 49.95376428 2.23672467 41.40161133 2.17602539 C40.16527451 2.17223877 38.92893768 2.16845215 37.65513611 2.16455078 C33.74637177 2.15243973 29.83768505 2.13379914 25.92895508 2.11352539 C20.75317592 2.08693261 15.577433 2.0669641 10.40161133 2.05102539 C9.21825699 2.04272705 8.03490265 2.03442871 6.81568909 2.02587891 C5.71361618 2.02257568 4.61154327 2.01927246 3.47607422 2.01586914 C2.51077286 2.01063232 1.5454715 2.00539551 0.55091858 2 C-12.91045498 2.56927863 -23.32831889 12.18601236 -32.50463867 21.12133789 C-34.32726612 23.35045059 -35.14143423 25.42494837 -36.13354492 28.11352539 C-36.79354492 29.10352539 -37.45354492 30.09352539 -38.13354492 31.11352539 C-38.79354492 31.11352539 -39.45354492 31.11352539 -40.13354492 31.11352539 C-36.96443995 20.21372494 -28.9054525 10.91787092 -19.06713867 5.39086914 C-12.39271778 1.99342024 -7.54869943 -0.01281613 0 0 Z " fill="#7348C9" transform="translate(165.133544921875,108.886474609375)"/>
<path d="M0 0 C1.27883057 -0.0040535 2.55766113 -0.00810699 3.87524414 -0.01228333 C7.30724062 -0.02147489 10.7391893 -0.0224952 14.17119598 -0.02050781 C16.28855132 -0.01953149 18.4058993 -0.02050806 20.52325439 -0.02172852 C41.0391848 -0.02614099 61.46803353 0.33275584 81.9140625 2.16796875 C81.9140625 2.49796875 81.9140625 2.82796875 81.9140625 3.16796875 C30.4340625 3.66296875 30.4340625 3.66296875 -22.0859375 4.16796875 C-21.4259375 3.83796875 -20.7659375 3.50796875 -20.0859375 3.16796875 C-20.0859375 2.50796875 -20.0859375 1.84796875 -20.0859375 1.16796875 C-13.40232517 -0.05182396 -6.77892825 0.00665559 0 0 Z " fill="#665DC7" transform="translate(179.0859375,114.83203125)"/>
<path d="M0 0 C2 4 2 4 2.97265625 6.0078125 C7.67993328 15.15241519 14.06942924 23.51307335 24 27 C32.02782136 29.42699289 39.52417359 30.45878078 47.890625 30.51171875 C48.96125183 30.52966995 50.03187866 30.54762115 51.13494873 30.56611633 C54.50659409 30.61967978 57.87810243 30.65394037 61.25 30.6875 C63.55600844 30.72072078 65.86199892 30.75521473 68.16796875 30.79101562 C73.77852267 30.87537421 79.3890956 30.94394869 85 31 C83 33 83 33 81.19865417 33.23377991 C80.47205093 33.22632248 79.74544769 33.21886505 78.99682617 33.21118164 C78.17224411 33.20780289 77.34766205 33.20442413 76.49809265 33.20094299 C75.60540176 33.18748337 74.71271088 33.17402374 73.79296875 33.16015625 C72.87542313 33.15495468 71.9578775 33.14975311 71.01252747 33.14439392 C68.07069282 33.12654058 65.1292021 33.09538561 62.1875 33.0625 C59.25654211 33.03484719 56.32563599 33.01011287 53.39460754 32.99131775 C51.56927502 32.97910486 49.74396852 32.96154482 47.91874695 32.93800354 C43.80517571 32.90579234 40.01220692 32.94757559 36 34 C36 33.34 36 32.68 36 32 C35.18982422 32.29777344 35.18982422 32.29777344 34.36328125 32.6015625 C28.27244413 33.62844744 20.85128895 29.89185163 15.9375 26.4375 C13.81408711 24.67551909 11.92098611 22.95665429 10 21 C9.175 20.195625 8.35 19.39125 7.5 18.5625 C2.86399225 13.81059206 0.09818032 9.99449966 -0.125 3.1875 C-0.063125 1.6096875 -0.063125 1.6096875 0 0 Z " fill="#6B56CA" transform="translate(132,308)"/>
<path d="M0 0 C0.66 0 1.32 0 2 0 C-0.87417361 11.33245596 -7.60083899 20.1378483 -17 27 C-20.24496379 28.90055256 -23.54330016 30.52346265 -27 32 C-27.74078293 32.34610321 -28.48156586 32.69220642 -29.24479675 33.04879761 C-32.46731056 34.16133362 -35.03532792 34.2404918 -38.44262695 34.22705078 C-39.72357742 34.22689972 -41.00452789 34.22674866 -42.32429504 34.22659302 C-43.71229205 34.2163813 -45.10028744 34.20594933 -46.48828125 34.1953125 C-47.91602887 34.1915795 -49.34377905 34.18873388 -50.77153015 34.18673706 C-54.51818999 34.17912318 -58.26469326 34.15949419 -62.0112915 34.1373291 C-65.83888634 34.11682214 -69.66650662 34.107725 -73.49414062 34.09765625 C-80.9961649 34.07624599 -88.49806046 34.04213741 -96 34 C-96 33.67 -96 33.34 -96 33 C-95.26830093 32.99413376 -94.53660187 32.98826752 -93.7827301 32.98222351 C-86.85403326 32.92408384 -79.92560661 32.85188691 -72.99722385 32.76428509 C-69.4360796 32.7197438 -65.87504546 32.68045322 -62.3137207 32.65356445 C-58.21016331 32.62234345 -54.10720301 32.56756222 -50.00390625 32.51171875 C-48.73793106 32.50532883 -47.47195587 32.4989389 -46.1676178 32.49235535 C-36.89980483 32.33955353 -29.85756084 31.00026599 -22 26 C-21.34 26 -20.68 26 -20 26 C-20 25.34 -20 24.68 -20 24 C-19.21625 23.9175 -18.4325 23.835 -17.625 23.75 C-14.91761828 23.30162561 -14.91761828 23.30162561 -14 21.3125 C-13.505 20.1678125 -13.505 20.1678125 -13 19 C-11.44615896 16.85296965 -9.79068051 14.96974856 -8 13 C-7.34 13 -6.68 13 -6 13 C-5.62875 12.01 -5.62875 12.01 -5.25 11 C-3.68182955 7.23639093 -1.85494954 3.6288576 0 0 Z " fill="#36A1C7" transform="translate(358,313)"/>
<path d="M0 0 C3.22400337 6.23307319 3.22400337 6.23307319 2.30859375 9.3671875 C0.85254241 12.29667588 -0.86255926 14.5979772 -2.9375 17.125 C-3.62714844 17.97320312 -4.31679688 18.82140625 -5.02734375 19.6953125 C-7.97239979 23.13607104 -10.74521724 25.60359133 -14.5625 28.0625 C-16.96871321 29.61527798 -18.97124564 30.97124564 -21 33 C-23.75 33.66796875 -23.75 33.66796875 -27 34.1875 C-28.0725 34.36667969 -29.145 34.54585938 -30.25 34.73046875 C-33 35 -33 35 -35 34 C-35.33 34.66 -35.66 35.32 -36 36 C-36 35.34 -36 34.68 -36 34 C-36.99 33.67 -37.98 33.34 -39 33 C-37.741875 32.7525 -36.48375 32.505 -35.1875 32.25 C-23.16274391 29.52741371 -13.32760754 25.29825925 -6 15 C-3.21876809 10.10723791 -0.91676196 5.59025497 0 0 Z " fill="#24A3C3" transform="translate(351,306)"/>
<path d="M0 0 C7.37082006 0.78412979 14.94663848 2.50879629 21 7 C21 7.66 21 8.32 21 9 C22.65 9.66 24.3 10.32 26 11 C26 11.66 26 12.32 26 13 C26.66 13 27.32 13 28 13 C30.92092737 15.30133672 31.90305826 16.57991912 32.75 20.25 C32.8325 21.1575 32.915 22.065 33 23 C33.99 23.33 34.98 23.66 36 24 C38.08781576 27.04417008 38.15271771 29.16151955 37.625 32.75 C37.51414062 33.54921875 37.40328125 34.3484375 37.2890625 35.171875 C37.19367188 35.77515625 37.09828125 36.3784375 37 37 C35.33350522 33.83290585 34.08147143 30.59350153 32.8125 27.25 C28.97300529 18.04864532 22.95436419 11.5054293 14 7 C11.14391413 6.05435227 8.31899049 5.293109 5.3828125 4.640625 C3 4 3 4 0 2 C0 1.34 0 0.68 0 0 Z " fill="#29A4C2" transform="translate(316,115)"/>
<path d="M0 0 C1.18387299 -0.009104 2.36774597 -0.01820801 3.5874939 -0.02758789 C4.64072342 -0.03721558 5.69395294 -0.04684326 6.77909851 -0.0567627 C9.16830444 0.04858398 9.16830444 0.04858398 10.16830444 1.04858398 C12.41713039 1.54135461 14.67573535 1.94730939 16.94174194 2.35327148 C19.45741303 3.13886702 20.39892643 4.15477178 22.16830444 6.04858398 C21.37149261 5.83795822 20.57468079 5.62733246 19.75372314 5.4103241 C9.64250444 2.96683874 0.09098942 2.57544671 -10.26138306 2.53686523 C-11.99016559 2.51997644 -13.71893617 2.50182073 -15.44769287 2.48246765 C-19.94870257 2.43541676 -24.44966376 2.40531928 -28.95083618 2.37902832 C-33.56356383 2.34899328 -38.17612492 2.30254322 -42.78872681 2.25756836 C-51.80296178 2.1720478 -60.81723152 2.1044776 -69.83169556 2.04858398 C-69.83169556 1.71858398 -69.83169556 1.38858398 -69.83169556 1.04858398 C-61.45090174 0.91700856 -53.07009167 0.78654155 -44.68925953 0.65743256 C-40.79638141 0.5974281 -36.90350964 0.53706282 -33.01065063 0.47583008 C-29.2434845 0.41658841 -25.47630398 0.35835051 -21.70911217 0.30076599 C-20.2824417 0.27878996 -18.85577647 0.25647142 -17.4291172 0.23377991 C-11.61956493 0.14155703 -5.80981037 0.07366549 0 0 Z " fill="#00173F" transform="translate(310.8316955566406,105.951416015625)"/>
<path d="M0 0 C1.31016083 0.00444122 2.62032166 0.00888245 3.97018433 0.01345825 C4.6922406 0.0131662 5.41429687 0.01287415 6.15823364 0.01257324 C8.54993621 0.01396895 10.94132901 0.0295412 13.33297729 0.04519653 C14.98921539 0.04892581 16.64545569 0.05177319 18.30169678 0.05377197 C22.6648872 0.06141514 27.02794486 0.08106944 31.39108276 0.10317993 C35.84174809 0.12362368 40.29243482 0.13277054 44.74313354 0.14285278 C53.47887161 0.16431474 62.2145017 0.19845885 70.95016479 0.24050903 C70.95016479 0.57050903 70.95016479 0.90050903 70.95016479 1.24050903 C62.43724908 2.09730044 54.037474 2.36370831 45.48532104 2.30300903 C43.63081581 2.2973291 43.63081581 2.2973291 41.73884583 2.29153442 C37.83008149 2.27942337 33.92139477 2.26078278 30.01266479 2.24050903 C24.83688564 2.21391625 19.66114271 2.19394775 14.48532104 2.17800903 C13.30196671 2.16971069 12.11861237 2.16141235 10.8993988 2.15286255 C9.7973259 2.14955933 8.69525299 2.1462561 7.55978394 2.14285278 C6.59448257 2.13761597 5.62918121 2.13237915 4.6346283 2.12698364 C1.92490558 2.16866441 1.92490558 2.16866441 -0.7754364 2.80911255 C-3.04983521 3.24050903 -3.04983521 3.24050903 -5.04983521 2.24050903 C-3.04983521 0.24050903 -3.04983521 0.24050903 0 0 Z " fill="#685CD3" transform="translate(161.04983520507813,108.75949096679688)"/>
<path d="M0 0 C-0.57105469 0.28488281 -1.14210937 0.56976563 -1.73046875 0.86328125 C-2.47941406 1.23839844 -3.22835937 1.61351563 -4 2 C-4.69738281 2.34417969 -5.39476562 2.68835938 -6.11328125 3.04296875 C-16.54157223 8.47012551 -21.46849611 15.76083323 -27 26 C-28.00579304 23.35672682 -28.08377402 22.23258313 -27.109375 19.52734375 C-26.66078125 18.67269531 -26.2121875 17.81804687 -25.75 16.9375 C-25.09257812 15.65166016 -25.09257812 15.65166016 -24.421875 14.33984375 C-23.10878376 12.17901503 -21.94971541 10.59855699 -20 9 C-19.34 9 -18.68 9 -18 9 C-17.67 8.01 -17.34 7.02 -17 6 C-11.96639764 0.10349437 -7.61093407 -1.81212716 0 0 Z " fill="#6F45CA" transform="translate(160,119)"/>
<path d="M0 0 C16.70006165 -0.45893299 33.34788102 0.89211771 50 2 C50 2.33 50 2.66 50 3 C32.51 3 15.02 3 -3 3 C-2.01 2.67 -1.02 2.34 0 2 C0 1.34 0 0.68 0 0 Z " fill="#5B77C4" transform="translate(211,115)"/>
<path d="M0 0 C3.63 0 7.26 0 11 0 C11 0.33 11 0.66 11 1 C26.84 1 42.68 1 59 1 C58.67 1.66 58.34 2.32 58 3 C40.18 3 22.36 3 4 3 C4 2.34 4 1.68 4 1 C2.68 0.67 1.36 0.34 0 0 Z " fill="#6167CE" transform="translate(158,344)"/>
<path d="M0 0 C0.33 0 0.66 0 1 0 C1 21.78 1 43.56 1 66 C0.01 65.34 -0.98 64.68 -2 64 C-2 63.34 -2 62.68 -2 62 C-1.34 62 -0.68 62 0 62 C0 41.54 0 21.08 0 0 Z " fill="#3E3F4B" transform="translate(264,174)"/>
<path d="M0 0 C-1.49041773 3.79379058 -3.69062512 5.68343758 -7 8 C-7.66 8 -8.32 8 -9 8 C-9.061875 8.556875 -9.12375 9.11375 -9.1875 9.6875 C-10.33373872 12.94987173 -12.49390197 14.68667874 -15 17 C-15.33 16.34 -15.66 15.68 -16 15 C-5.71428571 0 -5.71428571 0 0 0 Z " fill="#090332" transform="translate(152,123)"/>
<path d="M0 0 C7.25822745 0.77215186 15.13602922 2.41877283 21 7 C21.625 9.09765625 21.625 9.09765625 22 11 C21.29875 10.66226563 20.5975 10.32453125 19.875 9.9765625 C13.3645368 6.90618121 13.3645368 6.90618121 6.5 4.8125 C3 4 3 4 0 2 C0 1.34 0 0.68 0 0 Z " fill="#2996B7" transform="translate(316,115)"/>
<path d="M0 0 C10.56 0 21.12 0 32 0 C25.30410184 3.34794908 25.30410184 3.34794908 22.19921875 2.51953125 C19.65485847 1.91846568 17.42452846 1.93969343 14.8125 2 C9.78200871 2.0540913 4.98545142 1.65382969 0 1 C0 0.67 0 0.34 0 0 Z " fill="#020230" transform="translate(160,119)"/>
<path d="M0 0 C0.66 0.33 1.32 0.66 2 1 C0.62712658 4.69876091 -1.06355453 7.9514476 -3.125 11.3125 C-3.66382813 12.19550781 -4.20265625 13.07851562 -4.7578125 13.98828125 C-5.37269531 14.98408203 -5.37269531 14.98408203 -6 16 C-7.0255368 13.32738894 -7.08282493 12.2243612 -6.07421875 9.4921875 C-5.61660156 8.62851563 -5.15898437 7.76484375 -4.6875 6.875 C-4.23761719 6.00617188 -3.78773438 5.13734375 -3.32421875 4.2421875 C-2 2 -2 2 0 0 Z " fill="#7849CF" transform="translate(139,129)"/>
<path d="M0 0 C2.0625 0.4375 2.0625 0.4375 4 1 C-7.73786408 7 -7.73786408 7 -13 7 C-12.67 6.01 -12.34 5.02 -12 4 C-9.53125 3.0859375 -9.53125 3.0859375 -6.5 2.375 C-2.95087626 1.76862284 -2.95087626 1.76862284 0 0 Z " fill="#2D99B9" transform="translate(335,340)"/>
<path d="M0 0 C-0.80824219 0.39832031 -1.61648437 0.79664062 -2.44921875 1.20703125 C-3.51785156 1.73683594 -4.58648437 2.26664062 -5.6875 2.8125 C-6.74324219 3.33457031 -7.79898438 3.85664062 -8.88671875 4.39453125 C-11.66776696 5.8286728 -14.33904567 7.35603378 -17 9 C-16.875 7.25 -16.875 7.25 -16 5 C-11.083565 1.11258628 -6.24532602 -1.86287622 0 0 Z " fill="#120541" transform="translate(155,111)"/>
<path d="M0 0 C5.95507399 0.3916035 10.62819824 1.37124595 16 4 C16 4.66 16 5.32 16 6 C9.79011871 5.55643705 5.39459439 4.08467498 0 1 C0 0.67 0 0.34 0 0 Z " fill="#6645B9" transform="translate(146,341)"/>
<path d="M0 0 C6.11090483 -0.09945415 11.97403427 -0.0712828 18 1 C17.67 1.66 17.34 2.32 17 3 C13.9375 3.625 13.9375 3.625 11 4 C11 3.34 11 2.68 11 2 C10.484375 2.20625 9.96875 2.4125 9.4375 2.625 C5.96734329 3.15887026 3.29364209 2.07676761 0 1 C0 0.67 0 0.34 0 0 Z " fill="#6E50D1" transform="translate(157,338)"/>
<path d="M0 0 C2.65290556 3.13525203 4.02194497 6.00627528 5 10 C4.625 12.875 4.625 12.875 4 15 C3.34 14.67 2.68 14.34 2 14 C1.375 11.4375 1.375 11.4375 1 9 C0.67 9 0.34 9 0 9 C0 6.03 0 3.06 0 0 Z " fill="#299BB4" transform="translate(356,134)"/>
<path d="M0 0 C3.63 0 7.26 0 11 0 C11 0.33 11 0.66 11 1 C14.63 1.33 18.26 1.66 22 2 C22 2.33 22 2.66 22 3 C16.06 3 10.12 3 4 3 C4 2.34 4 1.68 4 1 C2.68 0.67 1.36 0.34 0 0 Z " fill="#6E52D3" transform="translate(158,344)"/>
<path d="M0 0 C-2.66666667 5.33333333 -5.33333333 10.66666667 -8 16 C-8.33 16 -8.66 16 -9 16 C-8.14285714 7.42857143 -8.14285714 7.42857143 -6 4 C-5.34 4 -4.68 4 -4 4 C-4 3.01 -4 2.02 -4 1 C-2 0 -2 0 0 0 Z " fill="#110342" transform="translate(133,125)"/>
<path d="M0 0 C3.2208589 6.22699387 3.2208589 6.22699387 2.25 9.625 C1 12 1 12 -2 13 C-1.48041715 8.62065881 -0.94324258 4.31196609 0 0 Z " fill="#1C9EB9" transform="translate(351,306)"/>
<path d="M0 0 C0.99 0.33 1.98 0.66 3 1 C4.6875 4.5625 4.6875 4.5625 6 8 C5.34 8 4.68 8 4 8 C3.67 8.66 3.34 9.32 3 10 C2.49596232 8.70990357 1.99690074 7.41786211 1.5 6.125 C1.2215625 5.40570313 0.943125 4.68640625 0.65625 3.9453125 C0 2 0 2 0 0 Z " fill="#693ABE" transform="translate(123,309)"/>
<path d="M0 0 C4.08691793 0.90820398 5.61817132 1.4087814 7.9375 5 C8.288125 5.99 8.63875 6.98 9 8 C8.67 8.66 8.34 9.32 8 10 C6.66370254 8.52351062 5.33103329 7.0437367 4 5.5625 C3.2575 4.73878906 2.515 3.91507812 1.75 3.06640625 C0 1 0 1 0 0 Z " fill="#032A48" transform="translate(345,119)"/>
<path d="M0 0 C0.33 0.99 0.66 1.98 1 3 C-2.90028225 5.60018816 -6.47434569 5.15085514 -11 5 C-7.41247258 3.13448574 -3.72187807 1.57464072 0 0 Z " fill="#2A94B1" transform="translate(332,333)"/>
<path d="M0 0 C2.475 0.495 2.475 0.495 5 1 C5.33 2.32 5.66 3.64 6 5 C6.66 5 7.32 5 8 5 C7.67 5.66 7.34 6.32 7 7 C1.125 3.375 1.125 3.375 0 0 Z " fill="#160A49" transform="translate(145,327)"/>
<path d="M0 0 C0 0.66 0 1.32 0 2 C-8.42857143 4.28571429 -8.42857143 4.28571429 -13 4 C-12.34 3.67 -11.68 3.34 -11 3 C-11 2.34 -11 1.68 -11 1 C-7.26513121 0.4254048 -3.78706732 0 0 0 Z " fill="#7452D4" transform="translate(170,115)"/>
<path d="M0 0 C8.03571429 0.80357143 8.03571429 0.80357143 12 3 C10.37509046 3.02698189 8.75005367 3.04638757 7.125 3.0625 C5.76761719 3.07990234 5.76761719 3.07990234 4.3828125 3.09765625 C2 3 2 3 0 2 C0 1.34 0 0.68 0 0 Z " fill="#6443B8" transform="translate(152,335)"/>
<path d="M0 0 C-0.39803561 2.88575819 -0.79009069 3.82189513 -3.0625 5.75 C-3.701875 6.1625 -4.34125 6.575 -5 7 C-5.66 6.34 -6.32 5.68 -7 5 C-2.25 0 -2.25 0 0 0 Z " fill="#26B3D1" transform="translate(351,328)"/>
<path d="M0 0 C1 2 1 2 0.3125 4.5 C-1.15567038 7.29651501 -2.09303901 7.93411431 -5 9 C-3.7508258 5.54074837 -2.32472205 2.85306797 0 0 Z " fill="#100542" transform="translate(141,131)"/>
<path d="M0 0 C1.40907283 2.81814566 0.50872691 4.17277204 -0.4375 7.125 C-0.72496094 8.03507813 -1.01242188 8.94515625 -1.30859375 9.8828125 C-1.53675781 10.58148438 -1.76492187 11.28015625 -2 12 C-2.33 12 -2.66 12 -3 12 C-3.36923077 4.61538462 -3.36923077 4.61538462 -1.5 1.5 C-1.005 1.005 -0.51 0.51 0 0 Z " fill="#13043F" transform="translate(123,144)"/>
<path d="M0 0 C-3.22515763 1.73662334 -6.51329166 2.8905928 -10 4 C-10 3.34 -10 2.68 -10 2 C-9.34 2 -8.68 2 -8 2 C-8 1.34 -8 0.68 -8 0 C-5.13822943 -1.43088528 -3.06624227 -0.59991697 0 0 Z " fill="#6947BF" transform="translate(160,119)"/>
<path d="M0 0 C0.66 0 1.32 0 2 0 C1.45276317 3.37462715 0.9451 5.08235 -1 8 C-1.66 8 -2.32 8 -3 8 C-1.125 2.25 -1.125 2.25 0 0 Z " fill="#6F41BC" transform="translate(128,132)"/>
<path d="M0 0 C0.66 0 1.32 0 2 0 C1.01 2.97 0.02 5.94 -1 9 C-1.33 9 -1.66 9 -2 9 C-2.25 3.375 -2.25 3.375 0 0 Z " fill="#289DB7" transform="translate(358,313)"/>
<path d="M0 0 C0.33 0 0.66 0 1 0 C1 4.29 1 8.58 1 13 C0.01 12.34 -0.98 11.68 -2 11 C-2 10.34 -2 9.68 -2 9 C-1.34 9 -0.68 9 0 9 C0 6.03 0 3.06 0 0 Z " fill="#2B2D38" transform="translate(264,227)"/>
<path d="M0 0 C2 2 2 2 2.3125 4.4375 C2 7 2 7 -1 10 C-0.67 6.7 -0.34 3.4 0 0 Z " fill="#01253D" transform="translate(362,301)"/>
</svg>
